<svg width="24" height="24" fill="none" xmlns="http://www.w3.org/2000/svg"><path fill-rule="evenodd" clip-rule="evenodd" d="M19.5 10.5V9H15V5.25h-1.5v5.25h6zm-5.25-9a8.25 8.25 0 0 1 0 16.5c-.78 0-1.534-.116-2.25-.319V12H6.319A8.22 8.22 0 0 1 6 9.75a8.25 8.25 0 0 1 8.25-8.25zM1.5 15h2.25v-1.5H1.5V15zm0 3.75h2.25v-1.5H1.5v1.5z" fill="#000"/><path fill-rule="evenodd" clip-rule="evenodd" d="M5.25 15h5.25v-1.5H5.25V15zm0 3.75h5.25v-1.5H5.25v1.5zM1.5 22.5h2.25V21H1.5v1.5zm3.75 0h5.25V21H5.25v1.5z" fill="#000"/></svg>