<svg width="24" height="24" fill="none" xmlns="http://www.w3.org/2000/svg"><path fill-rule="evenodd" clip-rule="evenodd" d="M12.75 6v5.25h6v-1.5h-4.5V6h-1.5zM1.5 15h2.25v-1.5H1.5V15zM1.5 18.75h2.25v-1.5H1.5v1.5zM5.25 15h5.25v-1.5H5.25V15zM5.25 18.75h5.25v-1.5H5.25v1.5zM1.5 22.5h2.25V21H1.5v1.5zM5.25 22.5h5.25V21H5.25v1.5z" fill="#000"/><path fill-rule="evenodd" clip-rule="evenodd" d="M14.25 1.5A8.25 8.25 0 0 0 6 9.75c0 .781.115 1.534.319 2.25h1.575A6.702 6.702 0 0 1 7.5 9.75 6.757 6.757 0 0 1 14.25 3 6.757 6.757 0 0 1 21 9.75a6.758 6.758 0 0 1-6.75 6.75c-.79 0-1.545-.143-2.25-.394v1.575c.716.203 1.47.319 2.25.319a8.25 8.25 0 0 0 0-16.5z" fill="#000"/></svg>