<svg width="24" height="24" fill="none" xmlns="http://www.w3.org/2000/svg"><path fill-rule="evenodd" clip-rule="evenodd" d="M12 18.75c1.034 0 1.875.84 1.875 1.875V22.5h-3.75v-1.875c0-1.034.84-1.875 1.875-1.875z" fill="#000"/><path fill-rule="evenodd" clip-rule="evenodd" d="M15 7.5h1.5V5.25H15V7.5zm0 3.75h1.5V9H15v2.25zM15 15h1.5v-2.25H15V15zm-3.75-7.5h1.5V5.25h-1.5V7.5zm0 3.75h1.5V9h-1.5v2.25zm0 3.75h1.5v-2.25h-1.5V15zM7.5 7.5H9V5.25H7.5V7.5zm0 3.75H9V9H7.5v2.25zm0 3.75H9v-2.25H7.5V15zM5.25 1.5c-.825 0-1.5.675-1.5 1.5v18c0 .825.675 1.5 1.5 1.5h3.375v-1.875a3.375 3.375 0 0 1 6.75 0V22.5h3.375c.825 0 1.5-.675 1.5-1.5V3c0-.825-.675-1.5-1.5-1.5H5.25z" fill="#000"/></svg>