<svg width="24" height="24" fill="none" xmlns="http://www.w3.org/2000/svg"><path fill-rule="evenodd" clip-rule="evenodd" d="M13.5 21v-.75c0-.827-.673-1.5-1.5-1.5s-1.5.673-1.5 1.5V21h3zM12 17.25a3 3 0 0 1 3 3v2.25H9v-2.25a3 3 0 0 1 3-3zM7.5 7.5H9V5.25H7.5V7.5zm3.75 0h1.5V5.25h-1.5V7.5zm3.75 0h1.5V5.25H15V7.5zm-7.5 3.75H9V9H7.5v2.25zm3.75 0h1.5V9h-1.5v2.25zm3.75 0h1.5V9H15v2.25zM7.5 15H9v-2.25H7.5V15zm3.75 0h1.5v-2.25h-1.5V15zM15 15h1.5v-2.25H15V15z" fill="#000"/><path fill-rule="evenodd" clip-rule="evenodd" d="M18.75 1.5H5.25c-.825 0-1.5.675-1.5 1.5v18a1.5 1.5 0 0 0 1.5 1.5H7.5V21H5.25V3h13.5v18H16.5v1.5h2.25a1.5 1.5 0 0 0 1.5-1.5V3c0-.825-.675-1.5-1.5-1.5z" fill="#000"/></svg>