<svg width="24" height="24" fill="none" xmlns="http://www.w3.org/2000/svg"><path fill-rule="evenodd" clip-rule="evenodd" d="M20.25 11.25h-7.5v-7.5h6c.827 0 1.5.673 1.5 1.5v6zm0 7.5c0 .827-.673 1.5-1.5 1.5h-6v-7.5h7.5v6zm-15 1.5c-.827 0-1.5-.673-1.5-1.5v-6h7.5v7.5h-6zm-1.5-15c0-.827.673-1.5 1.5-1.5h6v7.5h-7.5v-6zm15-3H5.25a3 3 0 0 0-3 3v13.5a3 3 0 0 0 3 3h13.5a3 3 0 0 0 3-3V5.25a3 3 0 0 0-3-3z" fill="#000"/><path fill-rule="evenodd" clip-rule="evenodd" d="M9.75 6.75h-1.5v-1.5h-1.5v1.5h-1.5v1.5h1.5v1.5h1.5v-1.5h1.5v-1.5zM14.25 8.25h4.5v-1.5h-4.5v1.5zM14.25 15.75h4.5v-1.5h-4.5v1.5zM14.25 18.75h4.5v-1.5h-4.5v1.5zM8.672 14.284l-1.164 1.164-1.164-1.164-1.06 1.06 1.163 1.164-1.164 1.164 1.06 1.06 1.165-1.163 1.164 1.164 1.06-1.06-1.164-1.165 1.164-1.164-1.06-1.06z" fill="#000"/></svg>