<svg width="24" height="24" fill="none" xmlns="http://www.w3.org/2000/svg"><path fill-rule="evenodd" clip-rule="evenodd" d="M4.534 16.094l1.06-1.06 1.164 1.164 1.164-1.164 1.06 1.06-1.163 1.164 1.164 1.164-1.06 1.06-1.165-1.163-1.164 1.164-1.06-1.06 1.164-1.165-1.164-1.164zM2.25 18.75a3 3 0 0 0 3 3h6v-9h-9v6zM6 4.5h1.5V6H9v1.5H7.5V9H6V7.5H4.5V6H6V4.5zm-3.75.75v6h9v-9h-6a3 3 0 0 0-3 3zM15 19.5h4.5V18H15v1.5zm0-3h4.5V15H15v1.5zm-2.25 5.25h6a3 3 0 0 0 3-3v-6h-9v9zM15 7.5h4.5V6H15v1.5zm3.75-5.25h-6v9h9v-6a3 3 0 0 0-3-3z" fill="#000"/></svg>