<svg width="24" height="24" fill="none" xmlns="http://www.w3.org/2000/svg"><path fill-rule="evenodd" clip-rule="evenodd" d="M20.25 20.25H3.75V12h-1.5v8.25c0 .825.675 1.5 1.5 1.5h16.5c.825 0 1.5-.675 1.5-1.5V12h-1.5v8.25zM20.25 9H3.75V5.25H6V7.5h1.5V5.25h9V7.5H18V5.25h2.25V9zm0-5.25H18v-1.5h-1.5v1.5h-9v-1.5H6v1.5H3.75c-.825 0-1.5.675-1.5 1.5v5.25h19.5V5.25c0-.825-.675-1.5-1.5-1.5z" fill="#000"/><path fill-rule="evenodd" clip-rule="evenodd" d="M9 18.75V13.5h-.75V12h2.25v6.75H9zM12 12v1.5h2.8L12 18.75h1.688L16.5 13.5V12H12z" fill="#000"/></svg>