<svg width="24" height="24" fill="none" xmlns="http://www.w3.org/2000/svg"><path fill-rule="evenodd" clip-rule="evenodd" d="M14.566 19.12a.751.751 0 0 1-.447.957l-2.382.876a.752.752 0 0 1-.965-.45l-.26-.725 3.789-1.394.265.735zM9.906 4.18a1.46 1.46 0 0 0-2.411.54l-4.108 11-1.412 1.415a1.634 1.634 0 0 0 0 2.304l2.575 2.583a1.614 1.614 0 0 0 2.295 0l1.41-1.416.85-.312.257.717a2.23 2.23 0 0 0 1.166 1.277 2.247 2.247 0 0 0 1.727.073l2.383-.876a2.257 2.257 0 0 0 1.34-2.874l-.269-.745 3.573-1.314a1.471 1.471 0 0 0 .539-2.42L9.905 4.18zM13.504 5.248h1.5V1.5h-1.5v3.748zM18.752 10.496H22.5v-1.5h-3.748v1.5zM20.78 4.279l-1.06-1.06-2.998 2.998 1.06 1.06 2.999-2.998z" fill="#000"/></svg>