<svg width="24" height="24" fill="none" xmlns="http://www.w3.org/2000/svg"><path d="M15 6c.365.002.73.024 1.091.067A7.477 7.477 0 0 0 9 1.5c-4.142 0-7.5 3.022-7.5 6.75a6.257 6.257 0 0 0 1.3 3.798L1.5 16.5l4.524-1.813C6.016 14.54 6 14.397 6 14.25 6 9.701 10.037 6 15 6z" fill="#333"/><path d="M22.5 14.25c0-3.728-3.358-6.75-7.5-6.75-4.142 0-7.5 3.022-7.5 6.75S10.858 21 15 21c.903 0 1.8-.15 2.653-.442L22.5 22.5l-1.3-4.452a6.256 6.256 0 0 0 1.3-3.798zm-9.75.75h-1.5v-1.5h1.5V15zm3 0h-1.5v-1.5h1.5V15zm3 0h-1.5v-1.5h1.5V15z" fill="#333"/></svg>