<svg width="24" height="24" fill="none" xmlns="http://www.w3.org/2000/svg"><path d="M3.805 13.96l.647-2.217-.456-.601A4.763 4.763 0 0 1 3 8.25C3 5.355 5.692 3 9 3a6.108 6.108 0 0 1 5.428 3.027c.19-.011.379-.027.572-.027.365.002.73.024 1.091.067A7.477 7.477 0 0 0 9 1.5c-4.142 0-7.5 3.022-7.5 6.75a6.257 6.257 0 0 0 1.3 3.798L1.5 16.5l4.524-1.813C6.016 14.54 6 14.397 6 14.25c.004-.407.04-.812.109-1.213l-2.304.923zM15.75 13.5h-1.5V15h1.5v-1.5zM12.75 13.5h-1.5V15h1.5v-1.5z" fill="#333"/><path d="M22.5 14.25c0-3.728-3.358-6.75-7.5-6.75-4.142 0-7.5 3.022-7.5 6.75S10.858 21 15 21c.903 0 1.8-.15 2.653-.442L22.5 22.5l-1.3-4.452a6.256 6.256 0 0 0 1.3-3.798zm-2.74 4.218l.435 1.492-1.984-.795-.516-.207-.526.18c-.698.239-1.431.361-2.169.362-3.309 0-6-2.355-6-5.25S11.691 9 15 9c3.308 0 6 2.355 6 5.25a4.763 4.763 0 0 1-.996 2.891l-.456.602.212.725z" fill="#333"/><path d="M18.75 13.5h-1.5V15h1.5v-1.5z" fill="#333"/></svg>