<svg width="24" height="24" fill="none" xmlns="http://www.w3.org/2000/svg"><path d="M18 13.5a4.5 4.5 0 1 0 0 9 4.5 4.5 0 0 0 0-9zm0 7.5a2.998 2.998 0 0 1-2.893-2.25h5.787A2.998 2.998 0 0 1 18 21zm-2.893-3.75a2.986 2.986 0 0 1 5.787 0h-5.787z" fill="#333"/><path d="M12 18a5.996 5.996 0 0 1 2.828-5.084 26.787 26.787 0 0 0-1.968-1.207.742.742 0 0 1-.173-1.16C13.729 9.436 14.25 8.5 14.25 6a4.323 4.323 0 0 0-4.501-4.5A4.323 4.323 0 0 0 5.25 6c0 2.5.52 3.437 1.563 4.549a.741.741 0 0 1-.173 1.16A18.214 18.214 0 0 0 3 14.25c-1.257 1.257-1.46 4.092-1.494 6.743A1.49 1.49 0 0 0 2.997 22.5h11.048A5.981 5.981 0 0 1 12 18z" fill="#333"/></svg>