<svg width="24" height="24" fill="none" xmlns="http://www.w3.org/2000/svg"><path fill-rule="evenodd" clip-rule="evenodd" d="M20.25 18.75V5.25c0-.827-.673-1.5-1.5-1.5H5.25c-.827 0-1.5.673-1.5 1.5v13.5c0 .827.673 1.5 1.5 1.5h13.5c.827 0 1.5-.673 1.5-1.5zm-1.5-16.5c1.65 0 3 1.35 3 3v13.5c0 1.65-1.35 3-3 3H5.25c-1.65 0-3-1.35-3-3V5.25c0-1.65 1.35-3 3-3h13.5z" fill="#000"/><path fill-rule="evenodd" clip-rule="evenodd" d="M7.247 8.916l.628-1.825.628 1.825H7.247zM8.25 6H7.056L5.25 11.25h1.195l.401-1.166h2.058l.401 1.166H10.5L8.694 6H8.25zM15.042 10.083v-.875h1.73a.438.438 0 0 1 0 .875h-1.73zm0-2.917h1.471a.437.437 0 1 1 0 .876h-1.471v-.875zm3.333 2.576c0-.627-.395-1.074-1.04-1.187.474-.147.783-.574.783-1.081 0-.834-.671-1.474-1.546-1.474h-2.697v5.25h2.953c.929 0 1.547-.6 1.547-1.508zM5.25 15h5.25v-1.5H5.25V15zM5.25 18h5.25v-1.5H5.25V18zM13.5 15h5.25v-1.5H13.5V15zM13.5 18h5.25v-1.5H13.5V18z" fill="#000"/></svg>