<svg width="24" height="24" fill="none" xmlns="http://www.w3.org/2000/svg"><path fill-rule="evenodd" clip-rule="evenodd" d="M7.247 8.916h1.256l-.628-1.825-.628 1.825zM16.95 7.604a.438.438 0 0 1-.436.438h-1.472v-.875h1.472c.241 0 .437.196.437.437zM17.208 9.646a.438.438 0 0 0-.437-.438h-1.73v.875h1.73a.437.437 0 0 0 .437-.437z" fill="#000"/><path fill-rule="evenodd" clip-rule="evenodd" d="M13.5 15h5.25v-1.5H13.5V15zm0 3h5.25v-1.5H13.5V18zm-4.195-6.75l-.401-1.167H6.846l-.401 1.167H5.25L7.056 6h1.638l1.806 5.25H9.305zM5.25 15h5.25v-1.5H5.25V15zm0 3h5.25v-1.5H5.25V18zm8.625-12h2.697c.875 0 1.547.64 1.547 1.474 0 .507-.31.934-.784 1.08.645.114 1.04.56 1.04 1.188 0 .907-.619 1.508-1.547 1.508h-2.953V6zm4.875-3.75H5.25c-1.65 0-3 1.35-3 3v13.5c0 1.65 1.35 3 3 3h13.5c1.65 0 3-1.35 3-3V5.25c0-1.65-1.35-3-3-3z" fill="#000"/></svg>