<svg width="24" height="24" fill="none" xmlns="http://www.w3.org/2000/svg"><path fill-rule="evenodd" clip-rule="evenodd" d="M3 8.25A5.256 5.256 0 0 1 8.25 3a5.255 5.255 0 0 1 4.86 3.27 9 9 0 0 1 1.529-.187A6.75 6.75 0 0 0 8.25 1.5 6.75 6.75 0 0 0 1.5 8.25a6.75 6.75 0 0 0 4.583 6.389 9 9 0 0 1 .188-1.53A5.255 5.255 0 0 1 3 8.25z" fill="#000"/><path fill-rule="evenodd" clip-rule="evenodd" d="M5.25 10.44c.546.426 1.08.727 1.59.937.2-.45.435-.88.704-1.288a5.165 5.165 0 0 1-1.353-.782L5.25 10.44zm2.61-4.1c.588-.247 1.415 0 2.268.682l.953-1.124c-.784-.625-1.49-.92-2.09-1.036V3.75H7.5v1.173a2.5 2.5 0 0 0-.31.116c-.775.356-1.297 1.062-1.297 1.758 0 1.539 1.444 1.974 2.466 2.248.38-.423.798-.808 1.251-1.153-.254-.086-.51-.156-.746-.22C7.68 7.359 7.39 7.186 7.39 6.8c.005-.078.147-.322.468-.458zM15 20.935A5.942 5.942 0 0 1 9.065 15 5.942 5.942 0 0 1 15 9.065 5.942 5.942 0 0 1 20.935 15 5.942 5.942 0 0 1 15 20.935zm0-13.37a7.435 7.435 0 1 0 0 14.87 7.435 7.435 0 0 0 0-14.87z" fill="#000"/><path fill-rule="evenodd" clip-rule="evenodd" d="M17.018 10.854L15 13.967l-2.018-3.113H11.25l2.154 3.375H11.25v1.125h2.871l.13.202v.923h-3v1.125h3v2.25h1.5v-2.25h3V16.48h-3v-.923l.128-.202h2.871V14.23h-2.154l2.154-3.375h-1.732z" fill="#000"/></svg>