<svg width="24" height="24" fill="none" xmlns="http://www.w3.org/2000/svg"><path fill-rule="evenodd" clip-rule="evenodd" d="M21 1.5h-3A1.5 1.5 0 0 0 16.5 3v3h6V3A1.5 1.5 0 0 0 21 1.5zm-4.5 11.25H9.75v4.5h7.5v5.25H21a1.5 1.5 0 0 0 1.5-1.5V7.5h-6v5.25z" fill="#000"/><path fill-rule="evenodd" clip-rule="evenodd" d="M11.25 22.5h4.5v-3.75h-6V21a1.5 1.5 0 0 0 1.5 1.5zM1.5 12.75v3a1.5 1.5 0 0 0 1.5 1.5h.75V21a1.5 1.5 0 0 0 1.5 1.5h1.5a1.5 1.5 0 0 0 1.5-1.5v-8.25H1.5zM5.25 3a1.5 1.5 0 0 0-1.5-1.5H3A1.5 1.5 0 0 0 1.5 3v2.25h3.75V3z" fill="#000"/><path fill-rule="evenodd" clip-rule="evenodd" d="M7.5 7.5h-6V9H9V1.5H7.5v6z" fill="#000"/></svg>