<svg width="24" height="24" fill="none" xmlns="http://www.w3.org/2000/svg"><mask id="a" maskUnits="userSpaceOnUse" x="0" y="0" width="24" height="24"><path fill-rule="evenodd" clip-rule="evenodd" d="M0 24h24V0H0v24z" fill="#fff"/></mask><g mask="url(#a)" fill-rule="evenodd" clip-rule="evenodd" fill="#000"><path d="M20.56 4.928a1.502 1.502 0 0 1 0 2.124l-1.08 1.081-1.062-1.06L19.5 5.99 16.51 3l-1.082 1.081-1.06-1.06 1.081-1.081a1.5 1.5 0 0 1 2.124 0l2.988 2.987zM5.716 14.194l2.59 2.59-3.33.74.74-3.33zm3.851 1.73l-2.99-2.991 6.728-6.73 2.991 2.991-6.729 6.73zm8.85-6.73l-1.06-1.06-4.047-4.049-.004-.002-8.846 8.845L3 19.5l6.572-1.46 8.846-8.846zM3 22.5h18V21H3v1.5z"/></g></svg>