<svg width="24" height="24" fill="none" xmlns="http://www.w3.org/2000/svg"><mask id="a" maskUnits="userSpaceOnUse" x="0" y="0" width="24" height="24"><path fill-rule="evenodd" clip-rule="evenodd" d="M0 24h24V0H0v24z" fill="#fff"/></mask><g mask="url(#a)" fill-rule="evenodd" clip-rule="evenodd" fill="#000"><path d="M18.418 7.073l1.06 1.06 1.082-1.081a1.502 1.502 0 0 0 0-2.124L17.573 1.94a1.5 1.5 0 0 0-2.124 0l-1.083 1.082 1.06 1.06 2.992 2.991zM4.976 17.525l.74-3.331 2.59 2.59-3.33.74zm13.442-8.33l-.004-.004-1.057-1.057-2.99-2.992-1.058-1.056-.003-.004-8.846 8.845L3 19.5l6.572-1.46 8.846-8.846zM3 22.5h18V21H3v1.5z"/></g></svg>