<svg width="24" height="24" fill="none" xmlns="http://www.w3.org/2000/svg"><path fill-rule="evenodd" clip-rule="evenodd" d="M12.152 17.848c-5.326 0-8.04-4.406-8.847-6 .474-.937 1.611-2.835 3.539-4.248l2.182 2.182a3.723 3.723 0 0 0-.624 2.066 3.75 3.75 0 0 0 3.75 3.75c.764 0 1.473-.232 2.066-.624l1.928 1.928a8.745 8.745 0 0 1-3.994.946zm0-12c5.327 0 8.041 4.407 8.848 6-.475.936-1.612 2.835-3.54 4.248l-2.182-2.183a3.729 3.729 0 0 0 .624-2.065 3.75 3.75 0 0 0-3.75-3.75c-.764 0-1.473.23-2.065.624L8.159 6.793a8.74 8.74 0 0 1 3.993-.945zm2.025 6.964l-1.495-1.494-1.494-1.495c.294-.14.618-.225.964-.225 1.24 0 2.25 1.01 2.25 2.25 0 .345-.085.67-.225.963zm-4.05-1.928l2.989 2.988a2.23 2.23 0 0 1-.964.226c-1.24 0-2.25-1.01-2.25-2.25 0-.347.085-.67.225-.964zm12.678 10.555l-4.278-4.277c2.882-2.214 4.125-5.314 4.125-5.314s-3-7.5-10.5-7.5c-2.016 0-3.705.545-5.1 1.338L2.56 1.196 1.5 2.256l4.277 4.277c-2.881 2.214-4.125 5.315-4.125 5.315s3 7.5 10.5 7.5c2.017 0 3.706-.546 5.102-1.338l4.49 4.49 1.06-1.06z" fill="#000"/></svg>