<svg width="24" height="24" fill="none" xmlns="http://www.w3.org/2000/svg"><path fill-rule="evenodd" clip-rule="evenodd" d="M12.152 15.152a3 3 0 0 1-3-3c0-.555.162-1.068.424-1.515l4.091 4.09a2.97 2.97 0 0 1-1.515.425zm0-6a3 3 0 0 1 3 3 2.97 2.97 0 0 1-.424 1.515l-4.09-4.091c.446-.263.959-.424 1.514-.424zm10.653 12.592l-4.278-4.277c2.882-2.214 4.125-5.315 4.125-5.315s-3-7.5-10.5-7.5c-2.016 0-3.705.545-5.1 1.338L2.56 1.5 1.5 2.56l4.277 4.278c-2.881 2.214-4.125 5.314-4.125 5.314s3 7.5 10.5 7.5c2.017 0 3.706-.545 5.102-1.338l4.49 4.49 1.06-1.06z" fill="#000"/></svg>