<svg width="24" height="24" fill="none" xmlns="http://www.w3.org/2000/svg"><path fill-rule="evenodd" clip-rule="evenodd" d="M12 18c-5.323 0-8.036-4.4-8.845-5.996C3.966 10.422 6.709 6 12 6c5.323 0 8.037 4.4 8.846 5.996C20.034 13.578 17.29 18 12 18zm0-13.5C4.5 4.5 1.5 12 1.5 12s3 7.5 10.5 7.5S22.5 12 22.5 12s-3-7.5-10.5-7.5z" fill="#000"/><path fill-rule="evenodd" clip-rule="evenodd" d="M12 14.25c-1.24 0-2.25-1.01-2.25-2.25S10.76 9.75 12 9.75s2.25 1.01 2.25 2.25-1.01 2.25-2.25 2.25zm0-6a3.75 3.75 0 1 0-.001 7.499A3.75 3.75 0 0 0 12 8.25z" fill="#000"/></svg>