<svg width="24" height="24" fill="none" xmlns="http://www.w3.org/2000/svg"><path fill-rule="evenodd" clip-rule="evenodd" d="M16.155 16.567A34.556 34.556 0 0 1 11.87 20a34.584 34.584 0 0 1-4.208-3.523C5.517 14.348 2.966 11.13 3 7.893c.025-2.309 1.908-4.167 4.2-4.143a4.115 4.115 0 0 1 3.535 2.076L12 8l1.31-2.147a4.121 4.121 0 0 1 3.58-2c2.29.026 4.134 1.924 4.11 4.232-.036 3.238-2.655 6.4-4.845 8.482zm.751-14.213a5.64 5.64 0 0 0-4.875 2.717c-.97-1.667-2.756-2.799-4.816-2.82-3.123-.034-5.68 2.486-5.715 5.627C1.422 15.189 11.853 21.8 11.853 21.8s10.568-6.387 10.646-13.7c.034-3.14-2.47-5.713-5.593-5.747z" fill="#000"/></svg>