<svg width="24" height="24" fill="none" xmlns="http://www.w3.org/2000/svg"><path fill-rule="evenodd" clip-rule="evenodd" d="M5.21 8.276l2.25-.008-.014-3.75 9-.03.012 3.75 2.25-.009.008 2.008 1.502.457-.01-2.47a1.5 1.5 0 0 0-1.505-1.495l-.75.003-.007-2.25a1.499 1.499 0 0 0-1.505-1.495L12.691 3l-.005-1.5-1.5.005.005 1.5-3.75.013a1.5 1.5 0 0 0-1.495 1.505l.008 2.25-.75.003A1.5 1.5 0 0 0 3.709 8.28l.008 2.469 1.499-.467-.007-2.007z" fill="#000"/><path fill-rule="evenodd" clip-rule="evenodd" d="M10.46 8.258l-.009-2.25-1.5.005.008 2.25 1.5-.005zM14.96 8.242l-.009-2.25-1.5.005.008 2.25 1.5-.005zM21.002 20.222c-.035.18-.477.77-1.2.772-.722.003-1.168-.585-1.202-.735l-1.498-.024c-.035.18-.477.77-1.2.773-.722.003-1.168-.585-1.202-.737l-1.498-.023c-.036.18-.477.77-1.2.773-.722.003-1.168-.585-1.202-.736l-1.498-.023c-.035.18-.477.77-1.2.773-.722.002-1.168-.586-1.202-.737l-1.498-.023c-.036.18-.478.771-1.2.773-.722.002-1.168-.585-1.204-.765l.002.028-1.5.005c.003.885 1.084 2.219 2.707 2.213a2.842 2.842 0 0 0 1.948-.777 2.843 2.843 0 0 0 1.953.764 2.843 2.843 0 0 0 1.947-.778 2.846 2.846 0 0 0 1.953.765 2.843 2.843 0 0 0 1.947-.778 2.843 2.843 0 0 0 1.953.764 2.84 2.84 0 0 0 1.947-.778 2.848 2.848 0 0 0 1.953.765c1.623-.006 2.695-1.347 2.692-2.23l-1.498-.024zM4.245 18.779l1.58-.005-1.69-5.013 7.085-2.205.024 7.199 1.5-.005-.024-7.2 7.1 2.157-1.656 5.025 1.58-.006 1.5-4.55a1.5 1.5 0 0 0-.988-1.903l-7.85-2.386a1.474 1.474 0 0 0-.442-.065c-.148 0-.297.023-.44.068L3.69 12.329a1.5 1.5 0 0 0-.975 1.912l1.53 4.538z" fill="#000"/></svg>