<svg width="24" height="24" fill="none" xmlns="http://www.w3.org/2000/svg"><path fill-rule="evenodd" clip-rule="evenodd" d="M11.25 20.25h1.5V12h-1.5v8.25zm-7.5-9.75V8.25h6v2.25h-6zm3-5.25c0-.827.673-1.5 1.5-1.5s1.5.673 1.5 1.5v1.5h-1.5c-.827 0-1.5-.673-1.5-1.5zm4.5 5.25h1.5V8.25h-1.5v2.25zm3-5.25c0-.827.673-1.5 1.5-1.5s1.5.673 1.5 1.5-.673 1.5-1.5 1.5h-1.5v-1.5zm6 5.25h-6V8.25h6v2.25zm1.5 1.5V8.25c0-.825-.675-1.5-1.5-1.5h-1.916c.258-.442.416-.951.416-1.5a3 3 0 0 0-6 0v1.5h-1.5v-1.5a3 3 0 0 0-6 0c0 .549.158 1.058.416 1.5H3.75c-.825 0-1.5.675-1.5 1.5V12h7.5v8.25h-4.5V13.5h-1.5v6.75c0 .825.675 1.5 1.5 1.5h13.5c.825 0 1.5-.675 1.5-1.5V13.5h-1.5v6.75h-4.5V12h7.5z" fill="#000"/></svg>