<svg width="24" height="24" fill="none" xmlns="http://www.w3.org/2000/svg"><path fill-rule="evenodd" clip-rule="evenodd" d="M12.75 12.66v1.59h-1.5V12a.75.75 0 0 1 .75-.75c1.034 0 1.875-.84 1.875-1.875 0-1.034-.84-1.875-1.875-1.875-1.034 0-1.875.84-1.875 1.875v.375h-1.5v-.375a3.375 3.375 0 0 1 6.75 0 3.372 3.372 0 0 1-2.625 3.285zM12 18a1.125 1.125 0 1 1 0-2.25A1.125 1.125 0 0 1 12 18zm0-16.5C6.201 1.5 1.5 6.201 1.5 12c0 5.8 4.701 10.5 10.5 10.5S22.5 17.8 22.5 12c0-5.799-4.701-10.5-10.5-10.5z" fill="#000"/></svg>