<svg width="24" height="24" fill="none" xmlns="http://www.w3.org/2000/svg"><path fill-rule="evenodd" clip-rule="evenodd" d="M3 20.25h18V3.75H3v16.5zm18-18H3a1.5 1.5 0 0 0-1.5 1.5v16.5a1.5 1.5 0 0 0 1.5 1.5h18a1.5 1.5 0 0 0 1.5-1.5V3.75a1.5 1.5 0 0 0-1.5-1.5z" fill="#000"/><path fill-rule="evenodd" clip-rule="evenodd" d="M15.375 10.5a1.125 1.125 0 1 0 0-2.25 1.125 1.125 0 0 0 0 2.25z" fill="#000"/><path fill-rule="evenodd" clip-rule="evenodd" d="M6 6.75h12v7.184l-2.666-2.667-2.25 2.25-3.75-3.75L6 13.101V6.75zm0 10.5v-2.028l3.334-3.334 4.596 4.596 1.06-1.06-.846-.845 1.19-1.19L18 16.055v1.195H6zm-1.5 1.5h15V5.25h-15v13.5z" fill="#000"/></svg>