<svg width="24" height="24" fill="none" xmlns="http://www.w3.org/2000/svg"><path d="M12 3.802c2.67 0 2.986.01 4.04.058.975.044 1.505.207 1.857.344.467.182.8.398 1.15.748.35.35.567.683.748 1.15.137.352.3.882.344 1.857.048 1.054.059 1.37.059 4.04s-.01 2.987-.059 4.041c-.044.975-.207 1.505-.344 1.857-.181.467-.398.8-.748 1.15-.35.35-.683.567-1.15.748-.352.137-.882.3-1.857.344-1.054.048-1.37.058-4.04.058s-2.987-.01-4.041-.058c-.975-.044-1.505-.207-1.857-.344a3.102 3.102 0 0 1-1.15-.748 3.092 3.092 0 0 1-.748-1.15c-.137-.352-.3-.882-.344-1.857-.048-1.054-.058-1.37-.058-4.04s.01-2.987.058-4.041c.044-.975.207-1.505.344-1.857.182-.467.398-.8.748-1.15.35-.35.683-.567 1.15-.748.352-.137.882-.3 1.857-.344 1.054-.048 1.37-.058 4.04-.058zM12 2c-2.716 0-3.057.012-4.123.06-1.065.049-1.791.218-2.428.465A4.897 4.897 0 0 0 3.68 3.68a4.898 4.898 0 0 0-1.154 1.77c-.247.637-.416 1.363-.465 2.428C2.012 8.943 2 9.284 2 12c0 2.715.012 3.056.06 4.122.049 1.065.218 1.791.465 2.428a4.897 4.897 0 0 0 1.154 1.77 4.9 4.9 0 0 0 1.77 1.154c.637.248 1.364.417 2.428.465 1.067.049 1.407.06 4.123.06s3.056-.011 4.123-.06c1.064-.048 1.791-.217 2.427-.465a4.897 4.897 0 0 0 1.771-1.153 4.9 4.9 0 0 0 1.154-1.771c.247-.636.416-1.363.465-2.428.048-1.066.06-1.407.06-4.122 0-2.716-.012-3.057-.06-4.123-.049-1.065-.218-1.792-.465-2.428a4.897 4.897 0 0 0-1.154-1.77 4.9 4.9 0 0 0-1.77-1.154c-.637-.247-1.364-.416-2.428-.465C15.055 2.012 14.714 2 12 2z" fill="#000"/><path d="M12 6.865a5.135 5.135 0 1 0 0 10.27 5.135 5.135 0 0 0 0-10.27zm0 8.468a3.333 3.333 0 1 1 0-6.666 3.333 3.333 0 0 1 0 6.666zM17.338 7.862a1.2 1.2 0 1 0 0-2.4 1.2 1.2 0 0 0 0 2.4z" fill="#000"/></svg>