<svg width="24" height="24" fill="none" xmlns="http://www.w3.org/2000/svg"><path fill-rule="evenodd" clip-rule="evenodd" d="M3 18h18V6H3v12zM21 4.5H3A1.5 1.5 0 0 0 1.5 6v12A1.5 1.5 0 0 0 3 19.5h18a1.5 1.5 0 0 0 1.5-1.5V6A1.5 1.5 0 0 0 21 4.5z" fill="#000"/><path fill-rule="evenodd" clip-rule="evenodd" d="M6.75 15.75h10.5v-1.5H6.75v1.5zm-1.5-6h1.5v-1.5h-1.5v1.5zm0 3h1.5v-1.5h-1.5v1.5zm3-3h1.5v-1.5h-1.5v1.5zm0 3h1.5v-1.5h-1.5v1.5zm3-3h1.5v-1.5h-1.5v1.5zm0 3h1.5v-1.5h-1.5v1.5zm3-3h1.5v-1.5h-1.5v1.5zm0 3h1.5v-1.5h-1.5v1.5zm3-3h1.5v-1.5h-1.5v1.5zm0 3h1.5v-1.5h-1.5v1.5z" fill="#000"/></svg>