<svg width="24" height="24" fill="none" xmlns="http://www.w3.org/2000/svg"><path fill-rule="evenodd" clip-rule="evenodd" d="M6.75 15.75h1.5v-1.5h-1.5v1.5zm3 0h1.5v-1.5h-1.5v1.5zm3 0h1.5v-1.5h-1.5v1.5zm3 0h1.5v-1.5h-1.5v1.5zm-10.5-4.5h13.5v-7.5H5.25v7.5zm15-7.5a1.5 1.5 0 0 0-1.5-1.5H5.25a1.5 1.5 0 0 0-1.5 1.5v9h16.5v-9z" fill="#000"/><path fill-rule="evenodd" clip-rule="evenodd" d="M9.75 20.25h4.5v-1.5h-4.5v1.5zm11.956-.364l-1.15-5.636h-1.53l1.21 5.936.002.057.002.007h-4.49v-3h-7.5v3H3.745a.017.017 0 0 0 .007-.011l.006-.027.006-.026 1.21-5.936h-1.53l-1.15 5.636c-.229.947.464 1.864 1.408 1.864h16.597c.943 0 1.636-.917 1.407-1.864z" fill="#000"/></svg>