<svg width="24" height="24" fill="none" xmlns="http://www.w3.org/2000/svg"><path fill-rule="evenodd" clip-rule="evenodd" d="M3.75 10.5H1.5V12h2.25v9H1.5v1.5h2.25a1.5 1.5 0 0 0 1.5-1.5v-9a1.5 1.5 0 0 0-1.5-1.5zM21 17.379l-3.621 3.62H9.75c-.827 0-1.5-.672-1.5-1.5v-8.377l.045-.045.04-.05 4.061-4.81.115-.136.08-.16L14.052 3h.493a.79.79 0 0 1 .456.75v.75c0 .865-.832 3.752-1.423 5.526L12.92 12H21v5.379zm0-6.88h-6s1.5-4.5 1.5-6v-.75c0-1.5-1.254-2.25-1.875-2.25H13.5c-.397 0-.75.75-.75.75l-1.5 3-4.06 4.811c-.282.282-.44.663-.44 1.062V19.5a3 3 0 0 0 3 3h7.629a1.5 1.5 0 0 0 1.06-.44l3.622-3.62a1.5 1.5 0 0 0 .439-1.061v-5.38a1.5 1.5 0 0 0-1.5-1.5z" fill="#000"/></svg>