<svg width="24" height="24" fill="none" xmlns="http://www.w3.org/2000/svg"><path d="M19.778 2H4.222A2.222 2.222 0 0 0 2 4.222v15.556A2.22 2.22 0 0 0 4.222 22h15.556A2.222 2.222 0 0 0 22 19.778V4.222A2.222 2.222 0 0 0 19.778 2zM8.667 17.556H5.863V9.778h2.804v7.778zM7.216 8.352c-.857 0-1.43-.57-1.43-1.333 0-.762.572-1.333 1.524-1.333.857 0 1.429.57 1.429 1.333 0 .762-.571 1.333-1.523 1.333zm11.45 9.204h-2.713v-4.252c0-1.175-.723-1.446-.994-1.446s-1.176.18-1.176 1.446v4.252H10.98V9.778h2.803v1.085c.361-.633 1.085-1.085 2.441-1.085 1.357 0 2.443 1.085 2.443 3.526v4.252z" fill="#2867B2"/></svg>