<svg width="24" height="24" fill="none" xmlns="http://www.w3.org/2000/svg"><path fill-rule="evenodd" clip-rule="evenodd" d="M6.027 7.195l-1.635.7 2.554 2.554 1.634-.701-2.553-2.553zm1.867-2.802l-.7 1.634 2.554 2.554.701-1.635-2.554-2.553zM6.57 12.406L1.5 7.338l3.344-1.433-1.25-1.25 1.061-1.06 1.25 1.25L7.338 1.5l5.068 5.069-1.4 3.269 2.25 2.25a.826.826 0 1 1-1.168 1.168l-2.25-2.25-3.27 1.4z" fill="#000"/><path fill-rule="evenodd" clip-rule="evenodd" d="M12.75 3c-.561 0-1.107.058-1.642.149l2.986 2.986a6.75 6.75 0 1 1-7.959 7.96l-2.987-2.987A9.784 9.784 0 0 0 3 12.75a9.75 9.75 0 0 0 9.75 9.75 9.75 9.75 0 0 0 9.75-9.75A9.75 9.75 0 0 0 12.75 3z" fill="#000"/><path fill-rule="evenodd" clip-rule="evenodd" d="M12.672 14.999a2.312 2.312 0 0 1-1.644-.681l-1.533-1.533-1.919.822A5.247 5.247 0 0 0 18 12.75a5.245 5.245 0 0 0-4.393-5.173l-.823 1.918 1.533 1.533c.439.44.682 1.023.682 1.644 0 .622-.243 1.206-.682 1.645-.44.44-1.024.682-1.645.682z" fill="#000"/></svg>