<svg width="24" height="24" fill="none" xmlns="http://www.w3.org/2000/svg"><path fill-rule="evenodd" clip-rule="evenodd" d="M19.19 5.25l-6.66 6.66a.75.75 0 0 1-1.06 0L4.81 5.25h14.38zm-8.78 7.72a2.242 2.242 0 0 0 1.59.657c.576 0 1.152-.219 1.59-.657l7.94-7.94.164-.164A1.497 1.497 0 0 0 20.25 3.75H3.75c-.695 0-1.274.475-1.445 1.116l.165.164 7.94 7.94z" fill="#000"/><path fill-rule="evenodd" clip-rule="evenodd" d="M20.25 8.432V18.75H3.75V8.432l-1.5-1.5V18.75a1.5 1.5 0 0 0 1.5 1.5h16.5a1.5 1.5 0 0 0 1.5-1.5V6.932l-1.5 1.5z" fill="#000"/></svg>