<svg width="24" height="24" fill="none" xmlns="http://www.w3.org/2000/svg"><path fill-rule="evenodd" clip-rule="evenodd" d="M8.25 20.786L3 19.18l-.005-10.5 5.085 1.543c.056.017.114.024.17.038v10.526zm12.005-.29l-4.272-1.44c-.076-.026-.155-.038-.233-.058V15.61c-.385-.402-.916-.98-1.5-1.673v5.08c-.093.025-.188.042-.279.077L9.75 20.698V10.227c.085-.023.172-.04.255-.07l1.318-.5a9.478 9.478 0 0 1-.562-1.391l-1.288.488a1.496 1.496 0 0 1-.958.032L3.43 7.243a1.504 1.504 0 0 0-.433-.064A1.51 1.51 0 0 0 1.5 8.696V19.18c0 .67.434 1.26 1.07 1.453l5.946 1.804a1.481 1.481 0 0 0 .957-.033l5.03-1.907a1.495 1.495 0 0 1 1.001-.018l4.271 1.44c.16.053.32.079.477.079a1.51 1.51 0 0 0 1.498-1.518v-8.474a29.244 29.244 0 0 1-1.498 1.93l.003 6.56z" fill="#000"/><path fill-rule="evenodd" clip-rule="evenodd" d="M17.25 3A3.754 3.754 0 0 1 21 6.75c0 1.36-1.946 4.047-3.75 6.064-1.804-2.017-3.75-4.704-3.75-6.064A3.754 3.754 0 0 1 17.25 3zm5.25 3.75a5.25 5.25 0 1 0-10.5 0c0 3 5.25 8.25 5.25 8.25s5.25-5.25 5.25-8.25z" fill="#000"/><path fill-rule="evenodd" clip-rule="evenodd" d="M19.125 6.75a1.875 1.875 0 1 0-3.75 0 1.875 1.875 0 0 0 3.75 0z" fill="#000"/></svg>