<svg width="24" height="24" fill="none" xmlns="http://www.w3.org/2000/svg"><path fill-rule="evenodd" clip-rule="evenodd" d="M3 19.5h18v-15H3v15zM21 3H3a1.5 1.5 0 0 0-1.5 1.5v15A1.5 1.5 0 0 0 3 21h18a1.5 1.5 0 0 0 1.5-1.5v-15A1.5 1.5 0 0 0 21 3z" fill="#000"/><path fill-rule="evenodd" clip-rule="evenodd" d="M5.25 7.5H7.5V6H5.25v1.5zm0 10.5H7.5v-1.5H5.25V18zM9 7.5h2.25V6H9v1.5zM9 18h2.25v-1.5H9V18zm3.75-10.5H15V6h-2.25v1.5zm0 10.5H15v-1.5h-2.25V18zM16.5 7.5h2.25V6H16.5v1.5zm0 10.5h2.25v-1.5H16.5V18zm-6.75-3L15 12 9.75 9v6z" fill="#000"/></svg>