<svg width="24" height="24" fill="none" xmlns="http://www.w3.org/2000/svg"><path fill-rule="evenodd" clip-rule="evenodd" d="M3.75 17.25h5.121L12 20.379l3.129-3.129h5.121V3.75H3.75v13.5zm16.5-15c.825 0 1.5.675 1.5 1.5v13.5c0 .825-.675 1.5-1.5 1.5h-4.5L12 22.5l-3.75-3.75h-4.5c-.825 0-1.5-.675-1.5-1.5V3.75c0-.825.675-1.5 1.5-1.5h16.5z" fill="#000"/><path fill-rule="evenodd" clip-rule="evenodd" d="M11.25 12h1.5V5.25h-1.5V12zm.75 1.5a1.125 1.125 0 1 0 0 2.25 1.125 1.125 0 0 0 0-2.25z" fill="#000"/></svg>