<svg width="24" height="24" fill="none" xmlns="http://www.w3.org/2000/svg"><path fill-rule="evenodd" clip-rule="evenodd" d="M22.28 19.279c-.363-.756-2.03-3.528-2.03-3.528s-1.666 2.772-2.03 3.528a2.25 2.25 0 1 0 4.059 0zM12 10.501a1.5 1.5 0 0 1-1.47-1.796L8.081 6.258l-.013.013-.874-.873A1.406 1.406 0 0 1 9.17 3.396l.863.911-.89.89 2.388 2.387a1.46 1.46 0 0 1 .47-.083 1.5 1.5 0 0 1 0 3zm.075-8.236l-.982.98-.85-.896a2.909 2.909 0 0 0-4.11 0 2.907 2.907 0 0 0 0 4.109l.874.874-3.884 3.884a2.98 2.98 0 0 0 0 4.214l4.71 4.712a2.972 2.972 0 0 0 2.108.873 2.97 2.97 0 0 0 2.107-.873L21 11.19l-8.925-8.925z" fill="#000"/></svg>