<svg width="24" height="24" fill="none" xmlns="http://www.w3.org/2000/svg"><path fill-rule="evenodd" clip-rule="evenodd" d="M19.5 21h-15V3h9V1.5h-9A1.5 1.5 0 0 0 3 3v18a1.5 1.5 0 0 0 1.5 1.5h15A1.5 1.5 0 0 0 21 21V9h-1.5v12z" fill="#000"/><path fill-rule="evenodd" clip-rule="evenodd" d="M16.5 7.5H21l-6-6V6a1.5 1.5 0 0 0 1.5 1.5zm-8.475 5.4H7.05v-1.35h.975a.675.675 0 0 1 0 1.35zm0-2.4H6v5.25h1.05v-1.8h.975a1.724 1.724 0 1 0 0-3.45zm5.175 3c0 .662-.539 1.2-1.2 1.2h-.45v-3.15H12c.661 0 1.2.538 1.2 1.2v.75zm-1.2-3h-1.5v5.25H12a2.256 2.256 0 0 0 2.25-2.25v-.75A2.256 2.256 0 0 0 12 10.5zm6 1.05V10.5h-3v5.25h1.05V13.8h1.65v-1.05h-1.65v-1.2H18z" fill="#000"/></svg>