<svg width="24" height="24" fill="none" xmlns="http://www.w3.org/2000/svg"><path fill-rule="evenodd" clip-rule="evenodd" d="M15.75 1.5v5.25H21L15.75 1.5zM12 11.55h-.45v3.15H12c.662 0 1.2-.539 1.2-1.2v-.75c0-.661-.538-1.2-1.2-1.2zM8.025 11.55H7.05v1.35h.975a.676.676 0 0 0 0-1.35z" fill="#000"/><path fill-rule="evenodd" clip-rule="evenodd" d="M18 10.5v1.05h-1.95v1.2h1.65v1.05h-1.65v1.95H15V10.5h3zm-3.75 3A2.257 2.257 0 0 1 12 15.75h-1.5V10.5H12a2.257 2.257 0 0 1 2.25 2.25v.75zm-6.225.45H7.05v1.8H6V10.5h2.025a1.724 1.724 0 1 1 0 3.45zm6.225-7.2V1.5H4.5A1.5 1.5 0 0 0 3 3v18a1.5 1.5 0 0 0 1.5 1.5h15A1.5 1.5 0 0 0 21 21V8.25h-5.25a1.5 1.5 0 0 1-1.5-1.5z" fill="#000"/></svg>