<svg width="24" height="24" fill="none" xmlns="http://www.w3.org/2000/svg"><path fill-rule="evenodd" clip-rule="evenodd" d="M20.952 19.209l-1.743 1.743a.173.173 0 0 1-.125.048l-.208-.005c-2.07-.042-6.92-.141-11.325-4.546-4.405-4.406-4.504-9.256-4.547-11.327L3 4.916c0-.035.006-.085.048-.126L4.79 3.047A.157.157 0 0 1 4.905 3c.045 0 .084.016.115.047l3.467 3.467c.032.031.047.07.047.114a.156.156 0 0 1-.047.115L6.694 8.536a2.323 2.323 0 0 0-.51 2.529c.39.953 1.253 2.757 2.623 4.129 1.37 1.37 3.175 2.23 4.129 2.622a2.32 2.32 0 0 0 2.529-.51l1.791-1.794a.158.158 0 0 1 .116-.046.16.16 0 0 1 .114.046l3.466 3.468c.032.031.048.07.048.114a.158.158 0 0 1-.048.115zm1.061-1.29l-3.466-3.467a1.658 1.658 0 0 0-1.175-.486 1.66 1.66 0 0 0-1.176.486l-1.792 1.793a.831.831 0 0 1-.9.183c-.818-.336-2.442-1.101-3.637-2.296-1.194-1.194-1.96-2.817-2.295-3.637a.825.825 0 0 1 .183-.899l1.793-1.792a1.663 1.663 0 0 0 0-2.35L6.08 1.986A1.655 1.655 0 0 0 4.905 1.5c-.425 0-.85.162-1.175.487L1.987 3.73A1.665 1.665 0 0 0 1.5 4.95c.048 2.084.003 7.574 4.99 12.56 4.986 4.986 10.476 4.942 12.56 4.99h.039c.442 0 .867-.173 1.181-.488l1.743-1.742c.65-.65.65-1.701 0-2.351z" fill="#000"/></svg>