<svg width="24" height="24" fill="none" xmlns="http://www.w3.org/2000/svg"><path fill-rule="evenodd" clip-rule="evenodd" d="M16.196 14.452l-1.793 1.793a.826.826 0 0 1-.899.183c-.819-.336-2.442-1.1-3.637-2.295-1.194-1.195-1.96-2.819-2.295-3.637a.828.828 0 0 1 .183-.9l1.793-1.792a1.663 1.663 0 0 0 0-2.35L6.08 1.987a1.661 1.661 0 0 0-2.35 0L1.986 3.73A1.666 1.666 0 0 0 1.5 4.95c.048 2.084.003 7.574 4.99 12.56 4.986 4.987 10.475 4.942 12.56 4.989.456.011.896-.162 1.22-.486l1.743-1.743c.65-.649.65-1.702 0-2.351l-3.466-3.467a1.663 1.663 0 0 0-2.351 0z" fill="#000"/></svg>