<svg width="24" height="24" fill="none" xmlns="http://www.w3.org/2000/svg"><path fill-rule="evenodd" clip-rule="evenodd" d="M21 20.25H3V6.75h5.427l1.5-3h4.146l1.5 3H21v13.5zm0-15h-4.5l-1.085-2.171a1.501 1.501 0 0 0-1.342-.829H9.927a1.5 1.5 0 0 0-1.342.829L7.5 5.25H3a1.5 1.5 0 0 0-1.5 1.5v13.5a1.5 1.5 0 0 0 1.5 1.5h18a1.5 1.5 0 0 0 1.5-1.5V6.75a1.5 1.5 0 0 0-1.5-1.5z" fill="#000"/><path fill-rule="evenodd" clip-rule="evenodd" d="M12 17.25a4.13 4.13 0 0 1-4.125-4.125A4.13 4.13 0 0 1 12 9a4.13 4.13 0 0 1 4.125 4.125A4.13 4.13 0 0 1 12 17.25zm0-9.75a5.625 5.625 0 1 0 0 11.25A5.625 5.625 0 0 0 12 7.5z" fill="#000"/></svg>