<svg width="24" height="24" fill="none" xmlns="http://www.w3.org/2000/svg"><path d="M20.546 8.332l-4.877-4.878a1.549 1.549 0 0 0-2.194.002l-.162.163a1.475 1.475 0 0 0-.452 1.073c.018.598-.201 1.67-1.559 3.029-1.46 1.46-3.58 1.185-4.721.889a1.54 1.54 0 0 0-1.47.413l-.157.157a1.55 1.55 0 0 0 0 2.193l7.673 7.673a1.549 1.549 0 0 0 2.192 0l.157-.158a1.54 1.54 0 0 0 .413-1.469c-.296-1.141-.57-3.262.889-4.722 1.356-1.355 2.428-1.575 3.026-1.555a1.476 1.476 0 0 0 1.078-.454l.164-.164a1.55 1.55 0 0 0 0-2.192zM3 19.5V21h1.5l3.98-3.98-1.5-1.5L3 19.5z" fill="#333"/></svg>