<svg width="24" height="24" fill="none" xmlns="http://www.w3.org/2000/svg"><path d="M22 12c0 5.523-4.476 10-9.999 10-5.522 0-9.999-4.477-9.999-10 0-5.522 4.477-9.999 10-9.999 5.522 0 9.998 4.477 9.998 10z" fill="#fff"/><path d="M12 2C6.477 2 2 6.477 2 12c0 4.236 2.636 7.858 6.356 9.315-.088-.79-.167-2.008.034-2.871.182-.78 1.173-4.97 1.173-4.97s-.3-.6-.3-1.486c0-1.39.806-2.428 1.81-2.428.853 0 1.265.64 1.265 1.408 0 .858-.546 2.14-.828 3.33-.235.994.5 1.807 1.48 1.807 1.779 0 3.144-1.875 3.144-4.58 0-2.394-1.72-4.068-4.177-4.068-2.845 0-4.515 2.134-4.515 4.34 0 .859.33 1.78.744 2.282a.299.299 0 0 1 .07.287c-.077.316-.245.995-.278 1.134-.044.183-.145.223-.334.134-1.25-.581-2.03-2.408-2.03-3.874 0-3.155 2.292-6.051 6.607-6.051 3.47 0 6.165 2.471 6.165 5.775 0 3.446-2.173 6.22-5.19 6.22-1.012 0-1.966-.527-2.291-1.148 0 0-.502 1.909-.623 2.377-.226.868-.836 1.957-1.243 2.62.935.29 1.93.447 2.96.447 5.523 0 10-4.477 10-10C22 6.477 17.523 2 12 2z" fill="#000"/></svg>