<svg width="24" height="24" fill="none" xmlns="http://www.w3.org/2000/svg"><path fill-rule="evenodd" clip-rule="evenodd" d="M16.706 8.567l-.546.546.127.761 1.722 10.33-4.075-6.298-1.008-1.558-1.312 1.312-3.719 3.718a.895.895 0 0 1-.637.264.894.894 0 0 1-.636-.264.895.895 0 0 1-.264-.637c0-.24.094-.467.264-.636l3.718-3.719 1.312-1.312-1.558-1.008-6.298-4.075 10.33 1.721.76.127.547-.545 1.94-1.94C18.935 3.792 20.057 3 20.71 3c.075 0 .12.009.2.09.107.107.498.776-2.262 3.537l-1.94 1.94zM20.71 1.5c-1.605 0-3.516 1.911-4.396 2.793l-1.94 1.94L3.543 4.428a1.602 1.602 0 0 0-1.394.447l-.416.415a.8.8 0 0 0 .131 1.238l7.415 4.798-2.361 2.36-2.742-.685a1.598 1.598 0 0 0-1.52.42l-.366.367a.8.8 0 0 0 .121 1.232l2.454 1.635a2.393 2.393 0 0 0 2.392 2.487c.03 0 .058-.007.087-.008l1.636 2.453a.8.8 0 0 0 1.231.122l.367-.366c.397-.398.556-.974.42-1.52l-.685-2.742 2.36-2.36 4.798 7.414a.797.797 0 0 0 1.238.131l.415-.415c.365-.366.532-.886.446-1.395L17.767 9.628l1.94-1.94c1.132-1.132 3.96-3.961 2.264-5.658a1.725 1.725 0 0 0-1.262-.53z" fill="#000"/></svg>