<svg width="24" height="24" fill="none" xmlns="http://www.w3.org/2000/svg"><path fill-rule="evenodd" clip-rule="evenodd" d="M17.796 9.052l1.75-1.75c1.14-1.14 3.988-3.988 2.564-5.412s-4.273 1.424-5.412 2.564l-1.75 1.75-11.39-1.899a1.61 1.61 0 0 0-1.404.45l-.418.418a.806.806 0 0 0 .132 1.246l7.81 5.055-2.266 2.265-3.217-.804a1.614 1.614 0 0 0-1.53.424l-.369.37c-.36.36-.3.958.122 1.24l2.601 1.733.123-.123c-.159.677-.02 1.363.447 1.832.468.468 1.155.605 1.832.446l-.123.123 1.733 2.601a.806.806 0 0 0 1.24.123l.37-.37c.4-.4.56-.98.423-1.53l-.804-3.216 2.267-2.267 5.054 7.81a.805.805 0 0 0 1.246.133l.418-.418a1.61 1.61 0 0 0 .45-1.404l-1.899-11.39z" fill="#000"/></svg>