<svg width="24" height="24" fill="none" xmlns="http://www.w3.org/2000/svg"><path fill-rule="evenodd" clip-rule="evenodd" d="M12.791 13.713h-1.518v2.858H9.586V7.717h3.205c1.733 0 3.049 1.294 3.049 2.993 0 1.698-1.316 3.003-3.049 3.003zM12 1.5C6.2 1.5 1.5 6.2 1.5 12c0 5.799 4.7 10.5 10.5 10.5S22.5 17.799 22.5 12c0-5.8-4.7-10.5-10.5-10.5z" fill="#000"/><path fill-rule="evenodd" clip-rule="evenodd" d="M12.679 9.292h-1.406v2.846h1.406c.765 0 1.36-.63 1.36-1.44 0-.798-.585-1.406-1.36-1.406z" fill="#000"/></svg>