<svg width="24" height="24" fill="none" xmlns="http://www.w3.org/2000/svg"><path fill-rule="evenodd" clip-rule="evenodd" d="M5.625 20.25a1.124 1.124 0 1 0-.001 2.249 1.124 1.124 0 0 0 .001-2.249zM10.875 20.25a1.125 1.125 0 1 0-.001 2.249 1.125 1.125 0 0 0 .001-2.249zM4.5 10.5h-3V12h1.752l1.247 6.745.001.005H12l.75-5.25H5.046l-.546-3z" fill="#000"/><path fill-rule="evenodd" clip-rule="evenodd" d="M19.5 10.5h-6V5.25H15V9h4.5v1.5zm-5.25-9a8.25 8.25 0 0 0-8.203 9.126l.199 1.091c.023.095.046.19.073.283h8.161l-.245 1.712-.608 4.256c.206.016.413.032.623.032a8.25 8.25 0 0 0 0-16.5z" fill="#000"/></svg>