<svg width="24" height="24" fill="none" xmlns="http://www.w3.org/2000/svg"><path fill-rule="evenodd" clip-rule="evenodd" d="M12.86 11.71a.741.741 0 0 1-.172-1.161C13.73 9.437 14.25 8.5 14.25 6c0-2.25-1.5-4.5-4.501-4.5C6.75 1.5 5.25 3.75 5.25 6c0 2.5.52 3.437 1.563 4.549a.742.742 0 0 1-.173 1.16c-1.003.558-2.649 1.55-3.64 2.541-1.257 1.257-1.46 4.092-1.494 6.744A1.49 1.49 0 0 0 2.997 22.5h13.505a1.49 1.49 0 0 0 1.492-1.506c-.033-2.652-.237-5.487-1.494-6.744-.991-.991-2.637-1.983-3.64-2.54zM19.5 4.5v-3H18v3h-3V6h3v3h1.5V6h3V4.5h-3z" fill="#000"/></svg>