<svg width="24" height="24" fill="none" xmlns="http://www.w3.org/2000/svg"><path d="M9.975 18.525L6.008 22.5l-.75-3.75L1.5 18l3.112-3.105a8.96 8.96 0 0 0 5.363 3.63zM22.5 18l-3.75.75-.742 3.75-3.975-3.975a9.046 9.046 0 0 0 5.362-3.63L22.5 18zM12.008 2.25c-4.14 0-7.5 3.36-7.5 7.5 0 4.14 3.36 7.5 7.5 7.5 4.14 0 7.5-3.36 7.5-7.5 0-4.14-3.36-7.5-7.5-7.5z" fill="#333"/><path d="M12.57 6.69h-2.287v6.322h1.207v-2.04h1.088c1.237 0 2.175-.93 2.175-2.144 0-1.215-.946-2.138-2.183-2.138zm-.082 3.157h-1.005V7.816h1.005c.555 0 .975.435.975 1.005 0 .578-.428 1.027-.975 1.027z" fill="#fff"/></svg>