<svg xmlns="http://www.w3.org/2000/svg" viewBox="0 0 32 32">
  <title>rexicon-32-meatball-horizontal-l</title>
  <g>
    <g>
      <path d="M6,13a3,3,0,1,0,3,3A3,3,0,0,0,6,13Zm0,4a1,1,0,1,1,1-1A1.0011,1.0011,0,0,1,6,17Z" style="fill: #333"/>
      <path d="M16,13a3,3,0,1,0,3,3A3,3,0,0,0,16,13Zm0,4a1,1,0,1,1,1-1A1.0011,1.0011,0,0,1,16,17Z" style="fill: #333"/>
      <path d="M26,13a3,3,0,1,0,3,3A3,3,0,0,0,26,13Zm0,4a1,1,0,1,1,1-1A1.0011,1.0011,0,0,1,26,17Z" style="fill: #333"/>
    </g>
    <rect width="32" height="32" style="fill: none"/>
  </g>
</svg>
