<svg width="24" height="24" fill="none" xmlns="http://www.w3.org/2000/svg"><path fill-rule="evenodd" clip-rule="evenodd" d="M5.625 18.75A2.628 2.628 0 0 1 3 16.125 2.628 2.628 0 0 1 5.625 13.5a2.628 2.628 0 0 1 2.625 2.625 2.628 2.628 0 0 1-2.625 2.625zm4.125-2.625a4.125 4.125 0 1 0-1.836 3.431l2.944 2.944L12 21.358l-2.944-2.944a4.111 4.111 0 0 0 .694-2.289z" fill="#000"/><path fill-rule="evenodd" clip-rule="evenodd" d="M19.5 10.5h-6V5.25H15V9h4.5v1.5zm-5.25-9A8.25 8.25 0 0 0 6 9.75c0 .26.016.517.039.771 2.909.213 5.211 2.642 5.211 5.604 0 .424-.053.843-.146 1.25A8.25 8.25 0 1 0 14.25 1.5z" fill="#000"/></svg>