<svg width="24" height="24" fill="none" xmlns="http://www.w3.org/2000/svg"><path fill-rule="evenodd" clip-rule="evenodd" d="M6 21h12v-9H6v9zm12-10.5H6A1.5 1.5 0 0 0 4.5 12v9A1.5 1.5 0 0 0 6 22.5h12a1.5 1.5 0 0 0 1.5-1.5v-9a1.5 1.5 0 0 0-1.5-1.5zM8.3 6c0-1.654 1.346-3 3-3h1.4c1.654 0 3 1.346 3 3v3h1.5V6c0-2.475-2.025-4.5-4.5-4.5h-1.4A4.513 4.513 0 0 0 6.8 6v3h1.5V6z" fill="#000"/><path fill-rule="evenodd" clip-rule="evenodd" d="M11.25 16.292v2.458h1.5v-2.458c.447-.26.75-.738.75-1.292a1.5 1.5 0 0 0-3 0c0 .554.303 1.032.75 1.292z" fill="#000"/></svg>