<svg width="24" height="24" fill="none" xmlns="http://www.w3.org/2000/svg"><path fill-rule="evenodd" clip-rule="evenodd" d="M12 16.5a4.5 4.5 0 1 1 0-9 4.5 4.5 0 0 1 0 9zm9-6.75h-.682a8.55 8.55 0 0 0-.844-2.042l.48-.481a1.504 1.504 0 0 0 0-2.121l-1.06-1.06a1.502 1.502 0 0 0-2.121 0l-.48.48a8.612 8.612 0 0 0-2.043-.844V3c0-.825-.675-1.5-1.5-1.5h-1.5c-.825 0-1.5.675-1.5 1.5v.682a8.612 8.612 0 0 0-2.042.844l-.481-.48a1.502 1.502 0 0 0-2.121 0l-1.06 1.06a1.504 1.504 0 0 0 0 2.121l.48.48a8.552 8.552 0 0 0-.844 2.043H3c-.825 0-1.5.675-1.5 1.5v1.5c0 .825.675 1.5 1.5 1.5h.682c.195.723.479 1.408.844 2.042l-.48.481a1.504 1.504 0 0 0 0 2.121l1.06 1.06a1.502 1.502 0 0 0 2.121 0l.48-.48c.635.365 1.32.648 2.043.844V21c0 .825.675 1.5 1.5 1.5h1.5c.825 0 1.5-.675 1.5-1.5v-.682a8.583 8.583 0 0 0 2.042-.844l.481.48a1.502 1.502 0 0 0 2.121 0l1.06-1.06a1.504 1.504 0 0 0 0-2.121l-.48-.48a8.55 8.55 0 0 0 .844-2.043H21c.825 0 1.5-.675 1.5-1.5v-1.5c0-.825-.675-1.5-1.5-1.5z" fill="#000"/></svg>