<svg width="24" height="24" fill="none" xmlns="http://www.w3.org/2000/svg"><path fill-rule="evenodd" clip-rule="evenodd" d="M21 12.75h-1.831l-.299 1.11a7.09 7.09 0 0 1-.696 1.684l-.574.997.813.812.481.48-1.06 1.061-.481-.48-.813-.814-.996.574a7.092 7.092 0 0 1-1.685.696l-1.109.3V21h-1.5v-1.83l-1.11-.3a7.092 7.092 0 0 1-1.684-.696L7.46 17.6l-.813.813-.48.481-1.061-1.06.48-.481.813-.813-.573-.995a7.09 7.09 0 0 1-.696-1.686l-.3-1.109H3v-1.5h1.831l.299-1.11a7.09 7.09 0 0 1 .696-1.684l.573-.996-.812-.813-.481-.48 1.06-1.061.481.48.813.813.996-.573a7.09 7.09 0 0 1 1.685-.696l1.109-.3V3h1.5v1.83l1.11.3c.593.161 1.16.394 1.684.696l.996.573.813-.812.48-.481 1.061 1.06-.48.481-.814.813.574.996a7.09 7.09 0 0 1 .696 1.685l.3 1.109H21v1.5zm0-3h-.682a8.55 8.55 0 0 0-.844-2.042l.48-.481a1.504 1.504 0 0 0 0-2.121l-1.06-1.06a1.491 1.491 0 0 0-1.06-.438c-.385 0-.77.145-1.061.437l-.48.48a8.612 8.612 0 0 0-2.043-.843V3c0-.825-.675-1.5-1.5-1.5h-1.5c-.825 0-1.5.675-1.5 1.5v.682a8.612 8.612 0 0 0-2.042.844l-.481-.48a1.492 1.492 0 0 0-1.06-.438c-.385 0-.77.145-1.061.437l-1.06 1.061a1.504 1.504 0 0 0 0 2.121l.48.48a8.552 8.552 0 0 0-.844 2.043H3c-.825 0-1.5.675-1.5 1.5v1.5c0 .825.675 1.5 1.5 1.5h.682c.195.723.479 1.408.844 2.042l-.48.481a1.504 1.504 0 0 0 0 2.121l1.06 1.06c.291.292.676.438 1.06.438.385 0 .77-.146 1.061-.438l.48-.48c.635.365 1.32.648 2.043.844V21c0 .825.675 1.5 1.5 1.5h1.5c.825 0 1.5-.675 1.5-1.5v-.682a8.583 8.583 0 0 0 2.042-.844l.481.48c.291.292.676.438 1.06.438.385 0 .77-.146 1.061-.438l1.06-1.06a1.504 1.504 0 0 0 0-2.121l-.48-.48a8.55 8.55 0 0 0 .844-2.043H21c.825 0 1.5-.675 1.5-1.5v-1.5c0-.825-.675-1.5-1.5-1.5z" fill="#000"/><path fill-rule="evenodd" clip-rule="evenodd" d="M12 15.375A3.38 3.38 0 0 1 8.625 12 3.38 3.38 0 0 1 12 8.625 3.38 3.38 0 0 1 15.375 12 3.38 3.38 0 0 1 12 15.375zm0-8.25a4.875 4.875 0 1 0 0 9.75 4.875 4.875 0 0 0 0-9.75z" fill="#000"/></svg>