<svg width="24" height="24" fill="none" xmlns="http://www.w3.org/2000/svg"><path fill-rule="evenodd" clip-rule="evenodd" d="M3.75 12c0-1.034.84-1.875 1.875-1.875 1.034 0 1.875.841 1.875 1.875s-.84 1.875-1.875 1.875A1.877 1.877 0 0 1 3.75 12zm12.75 6.375c0-1.034.84-1.875 1.875-1.875 1.034 0 1.875.84 1.875 1.875 0 1.034-.84 1.875-1.875 1.875a1.877 1.877 0 0 1-1.875-1.875zm0-12.75c0-1.034.84-1.875 1.875-1.875 1.034 0 1.875.841 1.875 1.875S19.41 7.5 18.375 7.5A1.877 1.877 0 0 1 16.5 5.625zM2.25 12a3.375 3.375 0 0 0 3.375 3.375c.987 0 1.867-.431 2.484-1.107l6.955 3.477a3.354 3.354 0 0 0-.064.63A3.375 3.375 0 1 0 18.375 15c-1.11 0-2.088.544-2.703 1.372L8.845 12.96A3.36 3.36 0 0 0 9 12c0-.335-.064-.653-.155-.959l6.827-3.413A3.36 3.36 0 0 0 18.375 9 3.375 3.375 0 1 0 15 5.625c0 .216.025.425.064.63L8.109 9.731a3.354 3.354 0 0 0-2.484-1.107A3.375 3.375 0 0 0 2.25 12z" fill="#000"/></svg>