<svg width="24" height="24" fill="none" xmlns="http://www.w3.org/2000/svg"><path fill-rule="evenodd" clip-rule="evenodd" d="M16.507 12.141a4.49 4.49 0 0 1-4.507.004 4.488 4.488 0 0 1-4.507-.004 4.461 4.461 0 0 1-2.243.61c-.257 0-.506-.028-.75-.069V19.5A1.5 1.5 0 0 0 6 21h2.625v-3.375A3.379 3.379 0 0 1 12 14.25a3.378 3.378 0 0 1 3.375 3.375V21H18a1.5 1.5 0 0 0 1.5-1.5v-6.818a4.486 4.486 0 0 1-.75.068 4.463 4.463 0 0 1-2.243-.609z" fill="#000"/><path fill-rule="evenodd" clip-rule="evenodd" d="M12 15.75c-1.036 0-1.875.84-1.875 1.875V21h3.75v-3.375c0-1.036-.84-1.875-1.875-1.875zm0-5.518a2.993 2.993 0 0 0 4.5 0c.005.005.018.008.024.013a2.982 2.982 0 0 0 2.226 1.005 3 3 0 0 0 3-3l-2.48-6H4.73l-2.48 6a3 3 0 0 0 3 3 2.98 2.98 0 0 0 2.225-1.005c.007-.005.02-.008.025-.013a2.993 2.993 0 0 0 4.5 0z" fill="#000"/></svg>