<svg width="24" height="24" fill="none" xmlns="http://www.w3.org/2000/svg"><path fill-rule="evenodd" clip-rule="evenodd" d="M9 19.5a1.5 1.5 0 1 0 .001 3.001A1.5 1.5 0 0 0 9 19.5zm10.5 0a1.5 1.5 0 1 0 .001 3.001A1.5 1.5 0 0 0 19.5 19.5zM8.8 15.861L6.933 3.415A2.237 2.237 0 0 0 4.708 1.5H2.25V3h2.458c.374 0 .686.268.741.638l1.867 12.446A2.237 2.237 0 0 0 9.541 18H21v-1.5H9.541a.745.745 0 0 1-.741-.639z" fill="#000"/><path fill-rule="evenodd" clip-rule="evenodd" d="M8.505 3.75l.225 1.5h11.409l-.436 6.107a1.506 1.506 0 0 1-1.496 1.393H9.855l.225 1.5h8.127a3 3 0 0 0 2.992-2.786l.55-7.714H8.506z" fill="#000"/></svg>