<svg width="24" height="24" fill="none" xmlns="http://www.w3.org/2000/svg"><path fill-rule="evenodd" clip-rule="evenodd" d="M13.5 20.25h-3v-3c0-.827.673-1.5 1.5-1.5s1.5.673 1.5 1.5v3zm-1.5-6a3 3 0 0 0-3 3v4.5h6v-4.5a3 3 0 0 0-3-3z" fill="#000"/><path fill-rule="evenodd" clip-rule="evenodd" d="M18.75 11.25c-.828 0-1.5-.673-1.5-1.5h-1.5a1.501 1.501 0 0 1-3 0h-1.5a1.501 1.501 0 0 1-3 0h-1.5a1.501 1.501 0 0 1-2.995.123L5.77 4.5h12.46l2.015 5.373a1.501 1.501 0 0 1-1.495 1.377zM19.27 3H4.73L2.25 9.614v.136c0 1.393.96 2.558 2.25 2.893v7.607a1.5 1.5 0 0 0 1.5 1.5h1.5v-1.5H6v-7.605a3 3 0 0 0 1.5-.913 2.993 2.993 0 0 0 4.5 0 2.993 2.993 0 0 0 4.5 0 3 3 0 0 0 1.5.913v7.605h-1.5v1.5H18a1.5 1.5 0 0 0 1.5-1.5v-7.607a2.997 2.997 0 0 0 2.25-2.893v-.136L19.27 3z" fill="#000"/></svg>