<svg width="24" height="24" fill="none" xmlns="http://www.w3.org/2000/svg"><path d="M12 22c5.523 0 10-4.477 10-10S17.523 2 12 2 2 6.477 2 12s4.477 10 10 10z" fill="#1DA1F2"/><path d="M10.17 17.275c4.435 0 6.86-3.675 6.86-6.86 0-.105 0-.21-.005-.31.47-.34.88-.765 1.205-1.25-.43.19-.895.32-1.385.38.5-.3.88-.77 1.06-1.335-.465.275-.98.475-1.53.585a2.411 2.411 0 0 0-4.105 2.2 6.84 6.84 0 0 1-4.97-2.52c-.205.355-.325.77-.325 1.21A2.4 2.4 0 0 0 8.05 11.38a2.368 2.368 0 0 1-1.09-.3v.03c0 1.17.83 2.14 1.935 2.365a2.403 2.403 0 0 1-1.09.04 2.407 2.407 0 0 0 2.25 1.675 4.847 4.847 0 0 1-3.57.995 6.717 6.717 0 0 0 3.685 1.09z" fill="#fff"/></svg>