<svg width="24" height="24" fill="none" xmlns="http://www.w3.org/2000/svg"><path d="M17.667 22H6.333A4.333 4.333 0 0 1 2 17.667V6.333A4.333 4.333 0 0 1 6.333 2h11.334A4.333 4.333 0 0 1 22 6.333v11.334A4.333 4.333 0 0 1 17.667 22z" fill="#000"/><path d="M19.5 10.981c0-3.229-3.365-5.856-7.5-5.856s-7.5 2.627-7.5 5.856c0 2.895 2.668 5.32 6.273 5.777.243.051.576.155.66.355.076.182.05.467.024.652l-.106.618c-.033.182-.151.713.649.39.8-.324 4.32-2.448 5.893-4.19 1.085-1.146 1.607-2.309 1.607-3.602z" fill="#fff"/><path d="M10.638 9.5h-.401c-.062 0-.112.069-.112.154v3.442c0 .085.05.154.112.154h.401c.062 0 .112-.069.112-.154V9.654c0-.085-.05-.154-.112-.154zM13.76 9.502h-.422c-.065 0-.118.068-.118.153V11.7L12.016 9.57l-.01-.016-.001-.002c-.003-.003-.004-.007-.007-.009l-.003-.001a.03.03 0 0 0-.007-.008l-.002-.003-.006-.006-.004-.003-.007-.006-.004-.002-.007-.003-.004-.002-.007-.004-.004-.001-.007-.002h-.006c-.001 0-.004 0-.005-.002h-.433c-.065 0-.117.069-.117.154v3.44c0 .086.053.154.117.154h.423c.065 0 .117-.068.117-.153v-2.043l1.206 2.133a.144.144 0 0 0 .032.04l.007.005.003.002.005.004.006.003.004.002.008.004h.002c.01.003.019.005.03.005h.422c.065 0 .118-.069.118-.154v-3.44c.003-.086-.05-.154-.115-.154zM9.348 12.387H7.854V9.654A.153.153 0 0 0 7.7 9.5h-.549A.153.153 0 0 0 7 9.654v3.442c0 .042.016.08.043.107l.002.002.002.002a.149.149 0 0 0 .105.043h2.196a.153.153 0 0 0 .152-.154v-.555a.153.153 0 0 0-.152-.154zM16.848 10.36a.153.153 0 0 0 .152-.153v-.553a.153.153 0 0 0-.152-.154h-2.196a.148.148 0 0 0-.105.043l-.002.002-.002.004a.15.15 0 0 0-.043.107v3.44c0 .042.016.08.043.107l.002.002.002.002a.148.148 0 0 0 .105.043h2.194a.153.153 0 0 0 .152-.154v-.555a.153.153 0 0 0-.152-.154h-1.493v-.582h1.493a.153.153 0 0 0 .152-.153v-.554a.153.153 0 0 0-.152-.153h-1.493v-.582h1.495v-.002z" fill="#000"/></svg>