<svg width="24" height="24" fill="none" xmlns="http://www.w3.org/2000/svg"><path fill-rule="evenodd" clip-rule="evenodd" d="M5.25 21.012c.015-1.164.06-4.706 1.055-5.702.652-.652 1.827-1.466 3.309-2.29a2.24 2.24 0 0 0 .537-3.496c-.74-.79-1.157-1.342-1.157-3.524 0-1.384.785-3 2.999-3 2.215 0 3.001 1.616 3.001 3 0 2.182-.418 2.735-1.157 3.523a2.242 2.242 0 0 0 .538 3.496c1.48.825 2.656 1.639 3.309 2.291.995.996 1.04 4.538 1.062 5.69l-13.496.012zm13.494-6.762c-.991-.99-2.638-1.983-3.64-2.541a.742.742 0 0 1-.173-1.161C15.973 9.438 16.494 8.5 16.494 6c0-2.25-1.5-4.5-4.501-4.5-2.999 0-4.499 2.25-4.499 4.5 0 2.5.52 3.437 1.562 4.548a.742.742 0 0 1-.172 1.161c-1.003.558-2.65 1.55-3.64 2.541-1.257 1.257-1.46 4.092-1.494 6.743-.01.831.66 1.507 1.491 1.507h13.505c.83 0 1.502-.676 1.491-1.507-.033-2.651-.237-5.486-1.493-6.743z" fill="#000"/></svg>