<svg width="24" height="24" fill="none" xmlns="http://www.w3.org/2000/svg"><path d="M1.833 21.893l1.432-5.217a10.036 10.036 0 0 1-1.347-5.034C1.92 6.091 6.447 1.574 12.01 1.574c2.7.001 5.233 1.05 7.138 2.953a9.999 9.999 0 0 1 2.953 7.123c-.001 5.551-4.53 10.07-10.091 10.07h-.005a10.1 10.1 0 0 1-4.822-1.226l-5.35 1.4zm5.597-3.222l.307.18a8.393 8.393 0 0 0 4.269 1.168h.003c4.623 0 8.386-3.754 8.388-8.37a8.309 8.309 0 0 0-2.455-5.92 8.342 8.342 0 0 0-5.93-2.454c-4.627 0-8.39 3.754-8.391 8.368 0 1.581.443 3.121 1.282 4.453l.2.317-.848 3.088 3.175-.83z" fill="#fff"/><path d="M2.184 21.542l1.382-5.037a9.689 9.689 0 0 1-1.3-4.86c.001-5.358 4.372-9.718 9.742-9.718a9.69 9.69 0 0 1 6.891 2.85 9.648 9.648 0 0 1 2.851 6.876c-.002 5.36-4.373 9.72-9.742 9.72h-.004a9.751 9.751 0 0 1-4.655-1.183l-5.165 1.352z" fill="url(#paint0_linear)"/><path d="M1.833 21.893l1.432-5.217a10.036 10.036 0 0 1-1.347-5.034C1.92 6.091 6.447 1.574 12.01 1.574c2.7.001 5.233 1.05 7.138 2.953a9.999 9.999 0 0 1 2.953 7.123c-.001 5.551-4.53 10.07-10.091 10.07h-.005a10.1 10.1 0 0 1-4.822-1.226l-5.35 1.4zm5.597-3.222l.307.18a8.393 8.393 0 0 0 4.269 1.168h.003c4.623 0 8.386-3.754 8.388-8.37a8.309 8.309 0 0 0-2.455-5.92 8.342 8.342 0 0 0-5.93-2.454c-4.627 0-8.39 3.754-8.391 8.368 0 1.581.443 3.121 1.282 4.453l.2.317-.848 3.088 3.175-.83z" fill="url(#paint1_linear)"/><path fill-rule="evenodd" clip-rule="evenodd" d="M9.487 7.434c-.188-.42-.387-.428-.567-.435-.147-.006-.315-.006-.484-.006a.93.93 0 0 0-.672.315c-.231.252-.883.86-.883 2.099 0 1.238.904 2.435 1.03 2.603.126.167 1.744 2.79 4.307 3.798 2.13.838 2.564.672 3.027.63.462-.042 1.491-.609 1.702-1.196.21-.588.21-1.092.147-1.197-.063-.105-.232-.168-.484-.293-.252-.127-1.491-.736-1.723-.819-.23-.084-.399-.126-.567.126-.168.252-.652.819-.799.986-.147.168-.294.19-.546.063-.252-.126-1.064-.391-2.028-1.248-.75-.667-1.255-1.491-1.403-1.743-.147-.252-.016-.389.111-.514.113-.112.252-.293.379-.44.125-.147.167-.252.252-.42.084-.168.042-.315-.021-.44-.064-.127-.554-1.372-.778-1.87z" fill="#fff"/><defs><linearGradient id="paint0_linear" x1="11.967" y1="21.542" x2="11.967" y2="1.927" gradientUnits="userSpaceOnUse"><stop stop-color="#20B038"/><stop offset="1" stop-color="#60D66A"/></linearGradient><linearGradient id="paint1_linear" x1="11.967" y1="21.893" x2="11.967" y2="1.575" gradientUnits="userSpaceOnUse"><stop stop-color="#F9F9F9"/><stop offset="1" stop-color="#fff"/></linearGradient></defs></svg>