<svg width="24" height="24" fill="none" xmlns="http://www.w3.org/2000/svg"><path fill-rule="evenodd" clip-rule="evenodd" d="M14.342 17.25H9.658C10.319 19.645 11.334 21 12 21c.666 0 1.68-1.355 2.342-3.75zM9.658 6.75h4.684C13.681 4.355 12.666 3 12 3c-.666 0-1.68 1.355-2.342 3.75zm-.34 9h5.364c.161-.9.267-1.906.302-3H9.016c.036 1.094.14 2.1.302 3zm0-7.5c-.161.9-.266 1.906-.302 3h5.968a20.909 20.909 0 0 0-.302-3H9.318z" fill="#000"/><path fill-rule="evenodd" clip-rule="evenodd" d="M15.893 17.25c-.332 1.34-.79 2.491-1.331 3.373A8.972 8.972 0 0 1 12 21a8.968 8.968 0 0 1-2.561-.377c-.543-.882-1-2.033-1.332-3.373H4.705a9.008 9.008 0 0 1-.876-1.5H7.8a22.962 22.962 0 0 1-.284-3H3.038A9.162 9.162 0 0 1 3 12c0-.254.018-.502.038-.75h4.478c.032-1.05.13-2.057.284-3H3.83c.244-.53.537-1.031.875-1.5h3.402c.332-1.34.79-2.492 1.332-3.373A8.968 8.968 0 0 1 12 3c.89 0 1.75.135 2.562.377.542.881.999 2.033 1.33 3.373h3.403a9 9 0 0 1 .876 1.5H16.2c.154.943.252 1.95.284 3h4.478c.02.248.038.496.038.75s-.018.502-.038.75h-4.478a22.953 22.953 0 0 1-.284 3h3.97a9.004 9.004 0 0 1-.875 1.5h-3.402zM12 1.5C6.2 1.5 1.5 6.201 1.5 12S6.2 22.5 12 22.5 22.5 17.799 22.5 12 17.8 1.5 12 1.5z" fill="#000"/></svg>