<svg width="24" height="24" fill="none" xmlns="http://www.w3.org/2000/svg"><path fill-rule="evenodd" clip-rule="evenodd" d="M16.275 11.55H15.3v1.35h.975a.676.676 0 0 0 0-1.35z" fill="#000"/><path fill-rule="evenodd" clip-rule="evenodd" d="M16.275 13.95H15.3v1.8h-1.05V10.5h2.025a1.725 1.725 0 1 1 0 3.45zm-4.8 1.8h1.05V10.5h-1.05v5.25zm-1.725-4.5L7.46 14.7h2.29v1.05H6V15l2.29-3.45H6V10.5h3.75v.75zm11.25-6h-9l-1.027-2.148a1.502 1.502 0 0 0-1.354-.852H4.132c-.67 0-1.259.444-1.442 1.088L1.5 7.5v12.75a1.5 1.5 0 0 0 1.5 1.5h18a1.5 1.5 0 0 0 1.5-1.5V6.75a1.5 1.5 0 0 0-1.5-1.5z" fill="#000"/></svg>