<svg width="24" height="24" fill="none" xmlns="http://www.w3.org/2000/svg"><path fill-rule="evenodd" clip-rule="evenodd" d="M21 20.25H3V7.71l1.132-3.96h5.487l1.028 2.147.408.853H21v13.5zm0-15h-9l-1.027-2.147a1.5 1.5 0 0 0-1.354-.853H4.132c-.67 0-1.259.444-1.442 1.088L1.5 7.5v12.75a1.5 1.5 0 0 0 1.5 1.5h18a1.5 1.5 0 0 0 1.5-1.5V6.75a1.5 1.5 0 0 0-1.5-1.5z" fill="#000"/><path fill-rule="evenodd" clip-rule="evenodd" d="M6 11.55h2.29L6 15v.75h3.75V14.7H7.46l2.29-3.45v-.75H6v1.05zM11.475 15.75h1.05V10.5h-1.05v5.25zM16.275 12.9H15.3v-1.35h.975a.675.675 0 0 1 0 1.35zm0-2.4H14.25v5.25h1.05v-1.8h.975a1.724 1.724 0 1 0 0-3.45z" fill="#000"/></svg>