<svg width="24" height="24" fill="none" xmlns="http://www.w3.org/2000/svg"><path d="M20.546 8.332l-4.877-4.878a1.55 1.55 0 0 0-2.194.002l-.162.163a1.474 1.474 0 0 0-.453 1.073c.02.598-.2 1.67-1.558 3.029a4.071 4.071 0 0 1-2.97 1.124 7.085 7.085 0 0 1-1.751-.235 1.476 1.476 0 0 0-.372-.048 1.559 1.559 0 0 0-1.097.46l-.158.158a1.55 1.55 0 0 0 0 2.192l7.673 7.674a1.55 1.55 0 0 0 2.192 0l.158-.158a1.54 1.54 0 0 0 .413-1.47c-.296-1.14-.572-3.261.889-4.721 1.305-1.305 2.346-1.557 2.956-1.557l.07.001h.04a1.484 1.484 0 0 0 1.037-.453l.164-.164a1.55 1.55 0 0 0 0-2.192zm-1.06 1.131l-.184.178h-.067c-.922 0-2.368.346-4.017 1.995-1.474 1.474-1.93 3.662-1.281 6.154a.07.07 0 0 1-.021.038l-.158.157a.044.044 0 0 1-.035.015.043.043 0 0 1-.035-.015l-7.673-7.672a.05.05 0 0 1 0-.071l.158-.159a.177.177 0 0 1 .03-.021c.696.184 1.411.28 2.13.283a5.55 5.55 0 0 0 4.03-1.563c1.676-1.676 2.016-3.141 1.998-4.088l.014-.016.162-.163a.045.045 0 0 1 .035-.015.046.046 0 0 1 .036.015l4.877 4.877a.05.05 0 0 1 0 .071zM3 19.5V21h1.5l3.98-3.98-1.5-1.5L3 19.5z" fill="#333"/></svg>