<svg width="24" height="24" fill="none" xmlns="http://www.w3.org/2000/svg"><path fill-rule="evenodd" clip-rule="evenodd" d="M3.75 20.25c0 .825.675 1.5 1.5 1.5h4.5V13.5h-6v6.75zM11.25 21.75h1.5V13.5h-1.5v8.25zM14.25 21.75h4.5c.825 0 1.5-.675 1.5-1.5V13.5h-6v8.25zM11.25 12h1.5V6.75h-1.5V12zM8.25 2.25a3 3 0 0 0-3 3c0 .549.158 1.057.416 1.5H3.75c-.825 0-1.5.675-1.5 1.5V12h7.5V6.75h-1.5c-.827 0-1.5-.673-1.5-1.5s.673-1.5 1.5-1.5 1.5.673 1.5 1.5v1.5h1.5v-1.5a3 3 0 0 0-3-3zM20.25 6.75h-1.916c.258-.443.416-.951.416-1.5a3 3 0 0 0-6 0v1.5h1.5v-1.5c0-.827.673-1.5 1.5-1.5s1.5.673 1.5 1.5-.673 1.5-1.5 1.5h-1.5V12h7.5V8.25c0-.825-.675-1.5-1.5-1.5z" fill="#000"/></svg>