<svg width="24" height="24" fill="none" xmlns="http://www.w3.org/2000/svg"><path fill-rule="evenodd" clip-rule="evenodd" d="M11.25 6a2.25 2.25 0 1 0 0-4.5 2.25 2.25 0 0 0 0 4.5zM5.253 20.25v2.25c2.667 0 5.408-1.654 5.91-4.468L9 17.106c0 1.968-1.905 3.144-3.748 3.144z" fill="#000"/><path fill-rule="evenodd" clip-rule="evenodd" d="M14.974 12.064a7.412 7.412 0 0 0 5.276 2.186V12a5.18 5.18 0 0 1-3.686-1.527L14.36 8.27a2.608 2.608 0 0 0-1.856-.769h-2.21c-.246 0-.49.034-.726.102l-1.04.3A6.635 6.635 0 0 0 3.75 14.25H6a4.371 4.371 0 0 1 3-4.129v5.353l2.951 1.265.257.134A6.248 6.248 0 0 1 15.75 22.5H18a8.505 8.505 0 0 0-4.5-7.507V10.59l1.474 1.473z" fill="#000"/></svg>