<svg width="24" height="24" fill="none" xmlns="http://www.w3.org/2000/svg"><path d="M18 13.5a4.5 4.5 0 1 0 0 9 4.5 4.5 0 0 0 0-9zm0 7.5a2.998 2.998 0 0 1-2.893-2.25h5.787A2.998 2.998 0 0 1 18 21zm-2.893-3.75a2.986 2.986 0 0 1 5.787 0h-5.787z" fill="#333"/><path d="M3.006 21.012c.015-1.164.059-4.706 1.055-5.701a16.075 16.075 0 0 1 3.31-2.291 2.242 2.242 0 0 0 .536-3.497C7.168 8.735 6.75 8.183 6.75 6a2.818 2.818 0 0 1 2.999-3 2.819 2.819 0 0 1 3.001 3c0 2.182-.418 2.735-1.157 3.523a2.24 2.24 0 0 0 .537 3.497c.542.301 1.041.601 1.49.892a6.025 6.025 0 0 1 1.208-.996 26.718 26.718 0 0 0-1.968-1.207.742.742 0 0 1-.173-1.16C13.73 9.436 14.25 8.5 14.25 6a4.323 4.323 0 0 0-4.501-4.5A4.323 4.323 0 0 0 5.25 6c0 2.5.52 3.437 1.563 4.549a.742.742 0 0 1-.173 1.16A18.214 18.214 0 0 0 3 14.25c-1.257 1.257-1.46 4.092-1.494 6.743A1.49 1.49 0 0 0 2.997 22.5h11.048a6.034 6.034 0 0 1-1.231-1.497l-9.808.01z" fill="#333"/></svg>