<svg width="24" height="24" fill="none" xmlns="http://www.w3.org/2000/svg"><path fill-rule="evenodd" clip-rule="evenodd" d="M7.5 20.7h9v-5.4h-9v5.4zm-1.5 0c0 .995.672 1.8 1.5 1.8h9c.828 0 1.5-.805 1.5-1.8v-7.2H6v7.2zM4.5 12H6v-1.5H4.5V12zm3-9h9v3H18V3a1.5 1.5 0 0 0-1.5-1.5h-9A1.5 1.5 0 0 0 6 3v3h1.5V3z" fill="#000"/><path fill-rule="evenodd" clip-rule="evenodd" d="M19.5 7.5h-15a3 3 0 0 0-3 3v8.25h3v-1.5H3V10.5C3 9.673 3.673 9 4.5 9h15c.827 0 1.5.673 1.5 1.5v6.75h-1.5v1.5h3V10.5a3 3 0 0 0-3-3z" fill="#000"/></svg>