<svg width="24" height="24" fill="none" xmlns="http://www.w3.org/2000/svg"><path fill-rule="evenodd" clip-rule="evenodd" d="M6.75 7.5a.75.75 0 1 1 0-1.5.75.75 0 0 1 0 1.5zm0-3a2.25 2.25 0 1 0 0 4.5 2.25 2.25 0 0 0 0-4.5zM22.047 12l-1.028-1.028-1.06 1.06 1.028 1.028a.047.047 0 0 1 0 .065l-7.862 7.861h-.064l-1.03-1.028-1.06 1.06 1.03 1.029a1.542 1.542 0 0 0 2.186 0l7.86-7.862a1.545 1.545 0 0 0 0-2.185z" fill="#000"/><path fill-rule="evenodd" clip-rule="evenodd" d="M3 10.926v-7.88C3 3.02 3.02 3 3.046 3h7.88l6.911 6.91-7.926 7.928L3 10.926zm15.898.046l1.06-1.061-1.06-1.06-7.351-7.35H3.046c-.854 0-1.546.69-1.546 1.544v8.502l8.411 8.412 1.06-1.06 7.927-7.927z" fill="#000"/></svg>