<svg width="24" height="24" fill="none" xmlns="http://www.w3.org/2000/svg"><path fill-rule="evenodd" clip-rule="evenodd" d="M7.875 8.153l.807 2.347H7.068l.807-2.347zM6.552 12h2.646l.516 1.5h1.536L8.929 6.75H6.82L4.5 13.5h1.536l.516-1.5zM14.528 9a5.397 5.397 0 0 0 1.222 1.568A5.395 5.395 0 0 0 16.973 9h-2.445zm4.972 4.5a7.026 7.026 0 0 1-3.75-1.072A7.026 7.026 0 0 1 12 13.5V12a5.55 5.55 0 0 0 2.478-.572c-.783-.774-1.315-1.65-1.564-2.428H12V7.5h3V6h1.5v1.5h3V9h-.914c-.248.778-.78 1.654-1.564 2.428A5.55 5.55 0 0 0 19.5 12v1.5z" fill="#000"/><path fill-rule="evenodd" clip-rule="evenodd" d="M21 17.25h-6.293l-.447.497-2.26 2.51-2.26-2.51-.447-.497H3V3h18v14.25zM21 1.5H3c-.825 0-1.5.675-1.5 1.5v14.25c0 .825.675 1.5 1.5 1.5h5.625L12 22.5l3.375-3.75H21c.825 0 1.5-.675 1.5-1.5V3c0-.825-.675-1.5-1.5-1.5z" fill="#000"/></svg>