<svg width="24" height="24" fill="none" xmlns="http://www.w3.org/2000/svg"><path fill-rule="evenodd" clip-rule="evenodd" d="M6.759 9.559h-.97v2.497h.97c.665 0 1.207-.563 1.207-1.254 0-.674-.553-1.243-1.207-1.243z" fill="#000"/><path fill-rule="evenodd" clip-rule="evenodd" d="M16.936 15.75c-.954 0-1.799-.398-2.441-1.152l-.021-.025.795-.88.027.033c.448.525 1.064.839 1.649.839.724 0 1.192-.366 1.192-.933 0-.391-.141-.637-.475-.821-.216-.123-.3-.152-.895-.34-1.557-.488-2.164-1.089-2.164-2.14 0-1.187 1.03-2.081 2.397-2.081.816 0 1.527.28 2.118.832l.027.025-.815.94-.028-.03c-.358-.374-.817-.581-1.292-.581-.58 0-1.035.393-1.035.895 0 .29.147.508.462.685.17.085.17.085 1.02.374l-.012.035.012-.035c1.451.487 2.043 1.133 2.043 2.233 0 1.253-1.054 2.127-2.564 2.127zm-4.928 0c-.955 0-1.799-.398-2.442-1.152l-.02-.025.794-.88.028.033c.448.525 1.064.839 1.649.839.724 0 1.192-.366 1.192-.933 0-.391-.142-.637-.475-.821-.216-.123-.3-.152-.895-.34-1.557-.488-2.164-1.089-2.164-2.14 0-1.187 1.03-2.081 2.398-2.081.814 0 1.526.28 2.117.832l.026.025-.814.94-.029-.03c-.357-.374-.816-.581-1.291-.581-.58 0-1.035.393-1.035.895 0 .29.147.508.462.685.17.085.17.085 1.02.374l-.013.035.013-.035c1.451.487 2.043 1.133 2.043 2.233 0 1.253-1.055 2.127-2.564 2.127zm-3.618-.115l-.01-.018-1.398-2.368H5.788v2.386H4.5v-7.27h2.26c1.45 0 2.587 1.075 2.587 2.447 0 .963-.367 1.63-1.092 1.984l-.062.03 1.826 2.81H8.39zM21 4.5H3A1.5 1.5 0 0 0 1.5 6v12A1.5 1.5 0 0 0 3 19.5h18a1.5 1.5 0 0 0 1.5-1.5V6A1.5 1.5 0 0 0 21 4.5z" fill="#000"/></svg>