<svg width="24" height="24" fill="none" xmlns="http://www.w3.org/2000/svg"><path fill-rule="evenodd" clip-rule="evenodd" d="M17.25 4.5H21V3h-3.75v1.5zm3.75-3h-3.75a1.5 1.5 0 0 0-1.5 1.5v3h6.75V3A1.5 1.5 0 0 0 21 1.5zM17.25 9H21v12h-2.25v-6h-7.5v-1.5h6V9zm-1.5 3h-6v4.5h7.5v6H21a1.5 1.5 0 0 0 1.5-1.5V7.5h-6.75V12z" fill="#000"/><path fill-rule="evenodd" clip-rule="evenodd" d="M11.25 21h3v-1.5h-3V21zm-1.5 0a1.5 1.5 0 0 0 1.5 1.5h4.5V18h-6v3zM6.75 21h-1.5v-5.25H3V13.5h3.75V21zM1.5 12v3.75a1.5 1.5 0 0 0 1.5 1.5h.75V21a1.5 1.5 0 0 0 1.5 1.5h1.5a1.5 1.5 0 0 0 1.5-1.5v-9H1.5zM3 4.5h1.5V3H3v1.5zM6 3a1.5 1.5 0 0 0-1.5-1.5H3A1.5 1.5 0 0 0 1.5 3v3H6V3z" fill="#000"/><path fill-rule="evenodd" clip-rule="evenodd" d="M7.5 7.5h-6V9H9V1.5H7.5v6z" fill="#000"/></svg>