<svg width="24" height="24" fill="none" xmlns="http://www.w3.org/2000/svg"><path fill-rule="evenodd" clip-rule="evenodd" d="M16.163 13.655l-.554.552.136.771.821 4.636-3.818-2.195-.748-.43-.748.43-3.818 2.195.821-4.636.137-.77-.554-.553-3.323-3.318 4.462-.612.823-.114.34-.756L12 4.725l1.86 4.13.341.756.822.114 4.463.612-3.323 3.318zm4.876-4.617l-5.811-.8-2.479-5.503A.811.811 0 0 0 12 2.25a.811.811 0 0 0-.748.485l-2.48 5.503-5.811.8a.825.825 0 0 0-.468 1.401l4.285 4.277-1.074 6.063a.826.826 0 0 0 .81.971.816.816 0 0 0 .408-.111L12 18.72l5.078 2.919a.814.814 0 0 0 .408.111.826.826 0 0 0 .81-.971l-1.074-6.063 4.285-4.277a.825.825 0 0 0-.468-1.402z" fill="#000"/></svg>