<svg width="24" height="24" fill="none" xmlns="http://www.w3.org/2000/svg"><path fill-rule="evenodd" clip-rule="evenodd" d="M20.25 21.001a.75.75 0 0 1-.677-1.074c.103-.216.364-.68.677-1.223.313.542.574 1.007.677 1.223a.75.75 0 0 1-.677 1.074zm2.03-1.723c-.364-.755-2.03-3.527-2.03-3.527s-1.666 2.772-2.03 3.528a2.25 2.25 0 1 0 4.059 0zM10.988 19.08a1.47 1.47 0 0 1-1.047.434c-.395 0-.767-.153-1.046-.433l-4.711-4.71a1.47 1.47 0 0 1-.434-1.048c0-.394.154-.766.434-1.046l3.883-3.884 1.736 1.734c-.031.121-.053.245-.053.375a1.5 1.5 0 1 0 1.5-1.5c-.137 0-.268.024-.394.058L9.128 7.332l2.947-2.946 6.803 6.804-7.89 7.89zM7.193 5.399a1.408 1.408 0 0 1 0-1.988 1.404 1.404 0 0 1 1.975-.014l.864.911-1.965 1.965-.874-.874zm4.882-3.134l-.981.982-.852-.896a2.908 2.908 0 0 0-4.109 0 2.909 2.909 0 0 0 0 4.108l.874.874-3.884 3.884a2.98 2.98 0 0 0 0 4.215l4.712 4.711a2.97 2.97 0 0 0 2.106.872c.762 0 1.525-.29 2.107-.872L21 11.19l-8.925-8.926z" fill="#000"/></svg>