<svg width="24" height="24" fill="none" xmlns="http://www.w3.org/2000/svg"><path d="M19.856 3.95c-.5-.456-2.51-1.915-6.99-1.936 0 0-5.287-.318-7.864 2.041-1.434 1.432-1.939 3.527-1.99 6.126-.054 2.6-.123 7.464 4.58 8.785h.002l-.003 2.014s-.03.816.508.981c.65.202 1.032-.417 1.654-1.086.34-.366.812-.907 1.167-1.318 3.214.27 5.688-.348 5.968-.438.65-.21 4.324-.681 4.92-5.546.616-5.016-.302-8.191-1.952-9.623zm.544 9.262c-.505 4.064-3.485 4.322-4.032 4.497-.235.075-2.405.615-5.136.435 0 0-2.035 2.449-2.67 3.088-.099.1-.216.141-.294.12-.108-.027-.139-.156-.139-.345.004-.27.019-3.347.019-3.347-.003 0-.003 0 0 0-3.975-1.101-3.744-5.246-3.699-7.416.045-2.17.454-3.947 1.666-5.141 2.18-1.97 6.669-1.675 6.669-1.675 3.791.018 5.607 1.156 6.028 1.537 1.395 1.197 2.108 4.058 1.588 8.247z" fill="#000"/><path fill-rule="evenodd" clip-rule="evenodd" d="M12.94 8.493a.253.253 0 0 1 .266-.24c.524.028.959.186 1.27.506.308.318.46.764.485 1.299a.253.253 0 0 1-.506.024c-.022-.458-.148-.77-.344-.971-.195-.201-.493-.329-.932-.352a.253.253 0 0 1-.24-.266z" fill="#000"/><path fill-rule="evenodd" clip-rule="evenodd" d="M12.552 7.132a.253.253 0 0 1 .27-.235c1.068.076 1.924.442 2.548 1.12.62.675.913 1.511.89 2.494a.253.253 0 0 1-.506-.011c.02-.867-.235-1.573-.757-2.14-.52-.565-1.244-.89-2.21-.958a.253.253 0 0 1-.235-.27z" fill="#000"/><path fill-rule="evenodd" clip-rule="evenodd" d="M12.107 5.833a.25.25 0 0 1 .255-.25c1.47.009 2.716.5 3.714 1.47 1.005.981 1.504 2.311 1.516 3.97a.253.253 0 0 1-.506.003c-.012-1.553-.475-2.744-1.364-3.611-.897-.873-2.015-1.318-3.364-1.327a.253.253 0 0 1-.252-.255z" fill="#000"/><path d="M13.244 13.459s.358.03.547-.207l.373-.469c.18-.234.616-.38 1.043-.144.238.135.665.396.93.591.282.208.862.69.862.69.277.232.34.574.154.934 0 .003-.003.006-.003.006-.193.34-.451.66-.78.958l-.005.006c-.268.222-.532.35-.79.38a.405.405 0 0 1-.115.007 1.08 1.08 0 0 1-.337-.051l-.009-.012c-.4-.111-1.064-.393-2.174-1.003a12.795 12.795 0 0 1-1.825-1.203 9.665 9.665 0 0 1-.848-.754l-.027-.027-.027-.027a9.626 9.626 0 0 1-.755-.846 12.95 12.95 0 0 1-1.205-1.822c-.61-1.107-.893-1.77-1.004-2.17l-.012-.009a.993.993 0 0 1-.052-.336.442.442 0 0 1 .006-.114c.03-.258.16-.522.382-.79l.006-.005c.298-.327.617-.586.96-.778.002 0 .005-.003.005-.003.361-.186.704-.123.936.153.003.003.484.58.691.862.196.267.46.69.592.927.238.426.09.862-.144 1.042l-.469.372c-.238.192-.207.546-.207.546s.697 2.632 3.3 3.296z" fill="#000"/></svg>