<svg width="24" height="24" fill="none" xmlns="http://www.w3.org/2000/svg"><path fill-rule="evenodd" clip-rule="evenodd" d="M20.25 17.25V3.75H3.75v13.5h5.871l.44.44L12 19.628l1.94-1.94.438-.439h5.872zm0-15a1.5 1.5 0 0 1 1.5 1.5v13.5a1.5 1.5 0 0 1-1.5 1.5H15l-3 3-3-3H3.75a1.5 1.5 0 0 1-1.5-1.5V3.75a1.5 1.5 0 0 1 1.5-1.5h16.5z" fill="#000"/><path fill-rule="evenodd" clip-rule="evenodd" d="M6.75 8.25h10.5v-1.5H6.75v1.5zM6.75 11.25h10.5v-1.5H6.75v1.5zM6.75 14.25H12v-1.5H6.75v1.5z" fill="#000"/></svg>