<svg width="24" height="24" fill="none" xmlns="http://www.w3.org/2000/svg"><path fill-rule="evenodd" clip-rule="evenodd" d="M18.75 20.25a.75.75 0 1 1 0-1.5.75.75 0 0 1 0 1.5zm0-14.25h-3v1.5h2.073l.75 1.5H17.25v4.5h3.573l.177.355v4.895h-.138a2.243 2.243 0 0 0-2.112-1.5c-.979 0-1.802.628-2.112 1.5h-.888v1.5h.888c.31.872 1.133 1.5 2.112 1.5.979 0 1.802-.628 2.112-1.5H21a1.5 1.5 0 0 0 1.5-1.5V13.5L18.75 6zM12.75 18.75H9.612a2.243 2.243 0 0 0-2.112-1.5c-.979 0-1.802.628-2.112 1.5H3.75V4.5h9v14.25zm-5.25 1.5a.75.75 0 1 1 0-1.5.75.75 0 0 1 0 1.5zM12.75 3h-9c-.825 0-1.5.675-1.5 1.5v14.25c0 .825.675 1.5 1.5 1.5h1.638c.31.872 1.133 1.5 2.112 1.5.979 0 1.802-.628 2.112-1.5h4.638V4.5c0-.825-.675-1.5-1.5-1.5z" fill="#000"/></svg>