<svg width="24" height="24" fill="none" xmlns="http://www.w3.org/2000/svg"><path fill-rule="evenodd" clip-rule="evenodd" d="M9 7.5h1.5V5.25H9V7.5zm4.5 0H15V5.25h-1.5V7.5zm-1.059 1.567l7.809 2.402V8.25a1.5 1.5 0 0 0-1.5-1.5H18V4.5A1.5 1.5 0 0 0 16.5 3h-3.75V1.5h-1.5V3H7.5A1.5 1.5 0 0 0 6 4.5v2.25h-.75a1.5 1.5 0 0 0-1.5 1.5v3.219l7.809-2.402a1.49 1.49 0 0 1 .882 0zm8.561 11.183c-.036.18-.48.769-1.202.769s-1.166-.59-1.2-.741l-1.498-.028c-.036.18-.48.769-1.202.769s-1.166-.59-1.2-.741l-1.498-.028c-.036.18-.48.769-1.202.769s-1.166-.59-1.2-.741l-1.498-.028c-.035.18-.48.769-1.202.769s-1.166-.59-1.2-.741l-1.498-.028c-.036.18-.48.769-1.202.769s-1.166-.59-1.202-.769l.002.028H1.5c0 .885 1.077 2.222 2.7 2.222.806 0 1.478-.33 1.95-.771a2.842 2.842 0 0 0 1.95.771 2.84 2.84 0 0 0 1.95-.771A2.842 2.842 0 0 0 12 22.5c.806 0 1.478-.33 1.95-.771a2.842 2.842 0 0 0 1.95.771c.806 0 1.478-.33 1.95-.771a2.842 2.842 0 0 0 1.95.771c1.624 0 2.7-1.337 2.7-2.222l-1.498-.028z" fill="#000"/><path fill-rule="evenodd" clip-rule="evenodd" d="M4 18.75h7.25v-8.019l-7.532 2.318a1.5 1.5 0 0 0-.983 1.908L4 18.75zm8.75 0H20l1.265-3.793a1.5 1.5 0 0 0-.983-1.909l-7.532-2.317v8.019z" fill="#000"/></svg>