<svg width="24" height="24" fill="none" xmlns="http://www.w3.org/2000/svg"><path fill-rule="evenodd" clip-rule="evenodd" d="M16.5 18V7.5H3V18h4.371l.44.44 1.939 1.939 1.94-1.94.439-.439H16.5zm0-12A1.5 1.5 0 0 1 18 7.5V18a1.5 1.5 0 0 1-1.5 1.5h-3.75l-3 3-3-3H3A1.5 1.5 0 0 1 1.5 18V7.5A1.5 1.5 0 0 1 3 6h13.5z" fill="#000"/><path fill-rule="evenodd" clip-rule="evenodd" d="M5.25 12h9v-1.5h-9V12zM5.25 15.75h4.5v-1.5h-4.5v1.5z" fill="#000"/><path fill-rule="evenodd" clip-rule="evenodd" d="M21 1.5H7.5A1.5 1.5 0 0 0 6 3v1.5h1.5V3H21v10.5h-1.5V15H21a1.5 1.5 0 0 0 1.5-1.5V3A1.5 1.5 0 0 0 21 1.5z" fill="#000"/></svg>