<svg width="24" height="24" fill="none" xmlns="http://www.w3.org/2000/svg"><path fill-rule="evenodd" clip-rule="evenodd" d="M10.5 10.5h6V9h-6v1.5zM7.5 10.5H9V9H7.5v1.5zM10.5 14.25h6v-1.5h-6v1.5zM7.5 14.25H9v-1.5H7.5v1.5zM10.5 18h6v-1.5h-6V18zM7.5 18H9v-1.5H7.5V18zM15.75 7.5h4.5l-6-6V6a1.5 1.5 0 0 0 1.5 1.5z" fill="#000"/><path fill-rule="evenodd" clip-rule="evenodd" d="M18.75 21H5.25V3h7.5V1.5h-7.5A1.5 1.5 0 0 0 3.75 3v18a1.5 1.5 0 0 0 1.5 1.5h13.5a1.5 1.5 0 0 0 1.5-1.5V9h-1.5v12z" fill="#000"/></svg>