<svg width="24" height="24" fill="none" xmlns="http://www.w3.org/2000/svg"><path fill-rule="evenodd" clip-rule="evenodd" d="M7.475 10.06c.238-.361.514-.703.81-1.035C7.268 8.75 5.892 8.3 5.892 6.798c0-.697.521-1.404 1.298-1.76.081-.037.186-.077.31-.115V3.75H8.99v1.112c.6.117 1.306.41 2.09 1.036l-.953 1.123c-.853-.68-1.68-.928-2.269-.68-.321.136-.463.38-.468.458 0 .386.29.558 1.472.874.21.056.437.12.664.193a8.951 8.951 0 0 1 5.088-1.848A6.748 6.748 0 0 0 8.25 1.5a6.746 6.746 0 1 0-2.232 13.115 8.98 8.98 0 0 1 .763-3.264 6.756 6.756 0 0 1-1.53-.912l.94-1.131c.456.355.885.592 1.284.752z" fill="#000"/><path fill-rule="evenodd" clip-rule="evenodd" d="M18.75 13.875V15h-2.871l-.129.202v.923h3v1.125h-3v2.25h-1.5v-2.25h-3v-1.125h3v-.923L14.121 15H11.25v-1.125h2.153L11.25 10.5h1.732L15 13.613l2.017-3.113h1.733l-2.153 3.375h2.153zM15 7.5a7.5 7.5 0 1 0 0 15 7.5 7.5 0 0 0 0-15z" fill="#000"/></svg>