<svg width="24" height="24" fill="none" xmlns="http://www.w3.org/2000/svg"><path fill-rule="evenodd" clip-rule="evenodd" d="M7.863 19.148l-3.022-3.033 4.044-10.83 9.835 9.871-10.857 3.992zm6.257.93l-2.382.876a.749.749 0 0 1-.965-.45l-.262-.726 3.79-1.394.265.736a.753.753 0 0 1-.446.958zm-8.335.88a.119.119 0 0 1-.088.037c-.05 0-.078-.028-.087-.037l-2.574-2.583a.126.126 0 0 1 0-.175l.88-.884 2.749 2.758-.88.884zm4.12-16.777a1.46 1.46 0 0 0-2.411.54L3.386 15.719l-1.411 1.417a1.635 1.635 0 0 0 0 2.303l2.575 2.584a1.615 1.615 0 0 0 2.296 0l1.41-1.416.848-.312.258.716a2.228 2.228 0 0 0 1.166 1.277 2.233 2.233 0 0 0 1.726.073l2.383-.876a2.257 2.257 0 0 0 1.34-2.873l-.267-.746 3.573-1.314a1.471 1.471 0 0 0 .537-2.42L9.905 4.18zM13.504 5.248h1.5V1.5h-1.5v3.748zM18.752 10.496H22.5v-1.5h-3.748v1.5zM20.78 4.28l-1.06-1.061-2.998 2.998 1.06 1.06 2.999-2.998z" fill="#000"/></svg>