<svg width="24" height="24" fill="none" xmlns="http://www.w3.org/2000/svg"><path fill-rule="evenodd" clip-rule="evenodd" d="M5.625 20.25a1.124 1.124 0 1 0-.001 2.249 1.124 1.124 0 0 0 .001-2.249zM10.875 20.25a1.125 1.125 0 1 0-.001 2.249 1.125 1.125 0 0 0 .001-2.249zM11.05 14.25l-.374 3H5.727l-.545-3h5.869zM4.5 10.5h-3V12h1.752L4.5 18.745v.005H12l.75-6H4.91L4.5 10.5z" fill="#000"/><path fill-rule="evenodd" clip-rule="evenodd" d="M14.25 1.5a8.25 8.25 0 0 0-8.203 9.127l.114.623h1.513a6.734 6.734 0 0 1-.174-1.5A6.757 6.757 0 0 1 14.25 3 6.757 6.757 0 0 1 21 9.75a6.758 6.758 0 0 1-6.75 6.75c-.154 0-.303-.013-.454-.023l-.186 1.49c.212.017.424.033.64.033a8.25 8.25 0 0 0 0-16.5z" fill="#000"/><path fill-rule="evenodd" clip-rule="evenodd" d="M12.75 6v5.25h6v-1.5h-4.5V6h-1.5z" fill="#000"/></svg>