<svg width="24" height="24" fill="none" xmlns="http://www.w3.org/2000/svg"><path fill-rule="evenodd" clip-rule="evenodd" d="M5.625 18.75A2.628 2.628 0 0 1 3 16.125 2.628 2.628 0 0 1 5.625 13.5a2.628 2.628 0 0 1 2.625 2.625 2.628 2.628 0 0 1-2.625 2.625zm4.125-2.625a4.125 4.125 0 1 0-1.836 3.431l2.944 2.944L12 21.358l-2.944-2.944a4.105 4.105 0 0 0 .694-2.289z" fill="#000"/><path fill-rule="evenodd" clip-rule="evenodd" d="M14.25 1.5A8.25 8.25 0 0 0 6 9.75c0 .26.016.517.039.771.546.04 1.07.157 1.56.342A6.72 6.72 0 0 1 7.5 9.75 6.757 6.757 0 0 1 14.25 3 6.757 6.757 0 0 1 21 9.75a6.758 6.758 0 0 1-6.75 6.75 6.702 6.702 0 0 1-3.017-.72c.006.114.017.228.017.345 0 .43-.053.848-.144 1.251A8.25 8.25 0 1 0 14.25 1.5z" fill="#000"/><path fill-rule="evenodd" clip-rule="evenodd" d="M12.75 6v5.25h6v-1.5h-4.5V6h-1.5z" fill="#000"/></svg>