<svg width="24" height="24" fill="none" xmlns="http://www.w3.org/2000/svg"><path fill-rule="evenodd" clip-rule="evenodd" d="M6.027 7.195l-1.635.7 2.554 2.554 1.634-.701-2.553-2.553zm1.868-2.802l-.7 1.634L9.748 8.58l.701-1.635-2.554-2.553zm-1.326 8.013L1.5 7.338l3.344-1.433-1.25-1.25 1.061-1.06 1.25 1.25L7.338 1.5l5.069 5.068-1.401 3.27 2.25 2.25a.826.826 0 1 1-1.167 1.168l-2.251-2.25-3.27 1.4z" fill="#000"/><path fill-rule="evenodd" clip-rule="evenodd" d="M12.75 3c-.561 0-1.107.058-1.642.148l1.365 1.366c.093-.003.184-.014.277-.014 4.549 0 8.25 3.701 8.25 8.25 0 4.549-3.701 8.25-8.25 8.25-4.549 0-8.25-3.701-8.25-8.25 0-.094.011-.184.014-.277l-1.366-1.365A9.784 9.784 0 0 0 3 12.75a9.75 9.75 0 0 0 9.75 9.75 9.75 9.75 0 0 0 9.75-9.75A9.75 9.75 0 0 0 12.75 3z" fill="#000"/><path fill-rule="evenodd" clip-rule="evenodd" d="M12.75 16.5c-1.987 0-3.601-1.558-3.726-3.514l-1.447.621A5.245 5.245 0 0 0 12.75 18c2.9 0 5.25-2.35 5.25-5.25a5.245 5.245 0 0 0-4.393-5.173l-.621 1.447c1.956.125 3.514 1.74 3.514 3.726a3.754 3.754 0 0 1-3.75 3.75z" fill="#000"/></svg>