<svg width="24" height="24" fill="none" xmlns="http://www.w3.org/2000/svg"><path fill-rule="evenodd" clip-rule="evenodd" d="M17.25 20.25a.75.75 0 0 1-.75.75h-9a.75.75 0 0 1-.75-.75V6a.76.76 0 0 1 .75-.75h9a.76.76 0 0 1 .75.75v14.25zm-.75-16.5H8.25v-1.5a.75.75 0 1 0-1.5 0v1.639A2.251 2.251 0 0 0 5.25 6v14.25A2.25 2.25 0 0 0 7.5 22.5h9a2.25 2.25 0 0 0 2.25-2.25V6a2.257 2.257 0 0 0-2.25-2.25z" fill="#000"/><path fill-rule="evenodd" clip-rule="evenodd" d="M9.75 12h4.5V8.25h-4.5V12zm-1.5 1.5h7.5V6.75h-7.5v6.75zm0 3h1.5V15h-1.5v1.5zm3 0h1.5V15h-1.5v1.5zm-3 3h1.5V18h-1.5v1.5zm3 0h1.5V18h-1.5v1.5zm3-3h1.5V15h-1.5v1.5zm0 3h1.5V18h-1.5v1.5z" fill="#000"/></svg>