<svg width="24" height="24" fill="none" xmlns="http://www.w3.org/2000/svg"><path fill-rule="evenodd" clip-rule="evenodd" d="M3 18h18V6H3v12zM21 4.5H3A1.5 1.5 0 0 0 1.5 6v12A1.5 1.5 0 0 0 3 19.5h18a1.5 1.5 0 0 0 1.5-1.5V6A1.5 1.5 0 0 0 21 4.5z" fill="#000"/><path fill-rule="evenodd" clip-rule="evenodd" d="M5.788 9.559v2.497h.97c.666 0 1.207-.563 1.207-1.254 0-.674-.552-1.243-1.207-1.243h-.97zm0 3.69v2.386H4.5v-7.27h2.258c1.452 0 2.59 1.075 2.59 2.447 0 .963-.369 1.63-1.093 1.983l-.062.03 1.827 2.81H8.39l-.01-.018-1.4-2.367H5.788z" fill="#000"/><path fill-rule="evenodd" clip-rule="evenodd" d="M12.017 14.565c-.585 0-1.201-.314-1.649-.84l-.028-.032-.795.88.021.025c.643.754 1.487 1.152 2.441 1.152 1.51 0 2.565-.875 2.565-2.127 0-1.099-.592-1.746-2.043-2.233l-.012.035.011-.035c-.85-.29-.85-.29-1.02-.374-.314-.176-.46-.394-.46-.686 0-.5.453-.894 1.034-.894.474 0 .933.207 1.292.582l.028.029.814-.94-.026-.025a3.008 3.008 0 0 0-2.117-.832c-1.367 0-2.398.895-2.398 2.08 0 1.052.607 1.653 2.164 2.14.595.19.678.218.894.34.334.185.476.43.476.822 0 .567-.468.933-1.192.933z" fill="#000"/><path fill-rule="evenodd" clip-rule="evenodd" d="M16.767 12.47c.595.19.679.218.895.34.334.185.475.43.475.822 0 .567-.468.933-1.192.933-.585 0-1.201-.314-1.649-.84l-.027-.031-.796.88.021.024c.643.754 1.488 1.152 2.442 1.152 1.51 0 2.564-.874 2.564-2.127 0-1.099-.592-1.746-2.043-2.233l-.012.035.011-.035c-.85-.29-.85-.29-1.019-.374-.315-.176-.462-.394-.462-.685 0-.502.455-.894 1.035-.894.475 0 .934.206 1.292.58l.028.03.815-.94-.027-.025a3.008 3.008 0 0 0-2.117-.832c-1.367 0-2.398.895-2.398 2.08 0 1.052.607 1.653 2.164 2.14z" fill="#000"/></svg>