<svg width="24" height="24" fill="none" xmlns="http://www.w3.org/2000/svg"><path fill-rule="evenodd" clip-rule="evenodd" d="M19.086 4.906A9.916 9.916 0 0 0 12.042 2c-5.49 0-9.957 4.445-9.958 9.91a9.853 9.853 0 0 0 1.329 4.954L2 22l5.28-1.378a9.983 9.983 0 0 0 4.758 1.206h.004c5.488 0 9.956-4.446 9.958-9.91a9.827 9.827 0 0 0-2.914-7.012zm-7.044 15.248h-.003a8.297 8.297 0 0 1-4.213-1.148l-.302-.178-3.133.817.836-3.04-.197-.311a8.187 8.187 0 0 1-1.265-4.384c.002-4.541 3.715-8.236 8.28-8.236a8.241 8.241 0 0 1 5.852 2.416 8.167 8.167 0 0 1 2.422 5.827c-.002 4.542-3.715 8.237-8.277 8.237zm4.54-6.17c-.249-.123-1.472-.722-1.7-.805-.229-.082-.394-.124-.56.124-.166.248-.643.806-.788.971-.145.166-.29.186-.539.062-.249-.124-1.05-.385-2.001-1.229-.74-.656-1.24-1.467-1.384-1.715-.145-.248-.016-.382.109-.505.111-.112.248-.29.373-.434.125-.145.166-.248.249-.413.083-.166.041-.31-.02-.434-.063-.124-.56-1.343-.768-1.839-.202-.482-.407-.417-.56-.425a10.1 10.1 0 0 0-.477-.008.916.916 0 0 0-.663.31c-.229.247-.871.847-.871 2.065 0 1.219.891 2.396 1.016 2.562.124.165 1.754 2.666 4.25 3.74.594.254 1.057.407 1.419.52.596.19 1.138.163 1.567.1.478-.072 1.472-.6 1.68-1.178.207-.579.207-1.075.144-1.178-.062-.104-.227-.166-.476-.29z" fill="#000"/></svg>