<svg width="24" height="24" fill="none" xmlns="http://www.w3.org/2000/svg"><path fill-rule="evenodd" clip-rule="evenodd" d="M12 18.75a5.624 5.624 0 0 1-5.625-5.625A5.624 5.624 0 0 1 12 7.5a5.624 5.624 0 0 1 5.625 5.625A5.624 5.624 0 0 1 12 18.75zm9-13.5h-3.75l-1.085-2.171a1.501 1.501 0 0 0-1.342-.829H9.177a1.5 1.5 0 0 0-1.342.829L6.75 5.25H3a1.5 1.5 0 0 0-1.5 1.5v13.5a1.5 1.5 0 0 0 1.5 1.5h18a1.5 1.5 0 0 0 1.5-1.5V6.75a1.5 1.5 0 0 0-1.5-1.5z" fill="#000"/><path fill-rule="evenodd" clip-rule="evenodd" d="M12 9a4.13 4.13 0 0 0-4.125 4.125A4.13 4.13 0 0 0 12 17.25a4.13 4.13 0 0 0 4.125-4.125A4.13 4.13 0 0 0 12 9z" fill="#000"/></svg>