<svg width="24" height="24" fill="none" xmlns="http://www.w3.org/2000/svg"><path fill-rule="evenodd" clip-rule="evenodd" d="M4.5 18.75h15V5.25h-15v13.5zM21 2.25H3a1.5 1.5 0 0 0-1.5 1.5v16.5a1.5 1.5 0 0 0 1.5 1.5h18a1.5 1.5 0 0 0 1.5-1.5V3.75a1.5 1.5 0 0 0-1.5-1.5z" fill="#000"/><path fill-rule="evenodd" clip-rule="evenodd" d="M18 16.055l-2.666-2.666-1.19 1.189.846.846-1.06 1.06-4.596-4.596L6 15.223v2.028h12v-1.195z" fill="#000"/><path fill-rule="evenodd" clip-rule="evenodd" d="M15.375 8.25a1.125 1.125 0 1 0 0 2.25 1.125 1.125 0 0 0 0-2.25zm-2.291 5.267l-3.75-3.75L6 13.101V6.75h12v7.184l-2.666-2.667-2.25 2.25z" fill="#000"/></svg>