<svg width="24" height="24" fill="none" xmlns="http://www.w3.org/2000/svg"><path fill-rule="evenodd" clip-rule="evenodd" d="M17.436 16.294l-.103.095-.083.11H6.75l-.083-.11-.103-.095L5.25 15.09v-3.84h13.5v3.84l-1.314 1.204zM7.66 19.5l.747-1.5h7.186l.747 1.5H7.66zm5.09-9.75h6V6h-6v3.75zm-7.5 0h6V6h-6v3.75zm0-5.25h13.5V3H5.25v1.5zm13.5-3H5.25A1.5 1.5 0 0 0 3.75 3v12.09c0 .42.176.822.486 1.106L5.55 17.4c.279.373.716.593 1.183.597L4.5 22.475h1.676L6.912 21h10.177l.736 1.475H19.5l-2.233-4.478a1.498 1.498 0 0 0 1.183-.597l1.314-1.204a1.5 1.5 0 0 0 .486-1.106V3a1.5 1.5 0 0 0-1.5-1.5z" fill="#000"/><path fill-rule="evenodd" clip-rule="evenodd" d="M7.875 12.75c-.619 0-1.125.506-1.125 1.125S7.256 15 7.875 15 9 14.494 9 13.875s-.506-1.125-1.125-1.125zM16.125 12.75c-.619 0-1.125.506-1.125 1.125S15.506 15 16.125 15s1.125-.506 1.125-1.125-.506-1.125-1.125-1.125z" fill="#000"/></svg>