<svg width="24" height="24" fill="none" xmlns="http://www.w3.org/2000/svg"><path d="M3 18H1.5v4.5H6V21H3v-3zM3 3h3V1.5H1.5V6H3V3zM21 21h-3v1.5h4.5V18H21v3zM18 1.5V3h3v3h1.5V1.5H18z" fill="#333"/><path d="M4.5 19.5h15v-15h-15v15zm9-1.5H12v-1.5h1.5V18zm0-12H18v7.5h-1.5v-3h-3V6zM6 13.5h1.5V12H9v1.5h3V12h-1.5v-1.5H6V6h4.5v1.5H12V9h-1.5v1.5H12V12h3v3h3v1.5h-1.5V18H15v-3h-1.5v-1.5H12V15h-1.5v3H6v-4.5z" fill="#333"/><path d="M16.5 7.5H15V9h1.5V7.5zM9 15H7.5v1.5H9V15zM9 7.5H7.5V9H9V7.5z" fill="#333"/></svg>