<svg width="24" height="24" fill="none" xmlns="http://www.w3.org/2000/svg"><path fill-rule="evenodd" clip-rule="evenodd" d="M12.75 9.75h6v-4.5h-6v4.5zM15 13.875c0-.619.506-1.125 1.125-1.125s1.125.506 1.125 1.125S16.744 15 16.125 15A1.128 1.128 0 0 1 15 13.875zM7.66 19.5l.747-1.5h7.186l.747 1.5H7.66zm.215-4.5a1.128 1.128 0 0 1-1.125-1.125c0-.619.506-1.125 1.125-1.125S9 13.256 9 13.875 8.494 15 7.875 15zM5.25 9.75h6v-4.5h-6v4.5zm13.5-8.25H5.25A1.5 1.5 0 0 0 3.75 3v11.5c0 .324.106.64.3.9l1.5 2c.279.373.716.593 1.183.598L4.5 22.475h1.676L6.912 21h10.177l.736 1.475H19.5l-2.233-4.477a1.498 1.498 0 0 0 1.183-.598l1.5-2c.194-.26.3-.576.3-.9V3a1.5 1.5 0 0 0-1.5-1.5z" fill="#000"/></svg>