<svg width="24" height="24" fill="none" xmlns="http://www.w3.org/2000/svg"><path fill-rule="evenodd" clip-rule="evenodd" d="M1.5 8.697V19.18c0 .669.434 1.26 1.07 1.453l4.93 1.495V8.48L3.43 7.244c-.962-.292-1.93.437-1.93 1.453zM17.25 17.121l-1.06-1.06a29.494 29.494 0 0 1-.44-.451v4.952l4.025 1.357c.972.328 1.975-.404 1.975-1.439v-8.475c-1.364 1.926-2.935 3.55-3.44 4.056l-1.06 1.06zM9 9v13.5l5.25-1.907v-6.656c-1.316-1.56-2.863-3.685-3.476-5.632L9 9z" fill="#000"/><path fill-rule="evenodd" clip-rule="evenodd" d="M15.375 6.75a1.875 1.875 0 1 1 3.75 0 1.875 1.875 0 0 1-3.75 0zm7.125 0a5.25 5.25 0 1 0-10.5 0c0 3 5.25 8.25 5.25 8.25s5.25-5.25 5.25-8.25z" fill="#000"/></svg>