<svg width="24" height="24" fill="none" xmlns="http://www.w3.org/2000/svg"><path fill-rule="evenodd" clip-rule="evenodd" d="M6.75 16.125a1.125 1.125 0 1 1-2.25 0 1.125 1.125 0 0 1 2.25 0zM10.5 16.125a1.125 1.125 0 1 0-2.25 0 1.125 1.125 0 0 0 2.25 0zM3 7.5h18V5.25H3V7.5zm18-3.75H3c-.825 0-1.5.675-1.5 1.5v5.25h21V5.25c0-.825-.675-1.5-1.5-1.5z" fill="#000"/><path fill-rule="evenodd" clip-rule="evenodd" d="M21 18.75H3V12H1.5v6.75c0 .825.675 1.5 1.5 1.5h18c.825 0 1.5-.675 1.5-1.5V12H21v6.75z" fill="#000"/></svg>