<svg width="24" height="24" fill="none" xmlns="http://www.w3.org/2000/svg"><path d="M21.779 18a10.495 10.495 0 0 0-3.255-2.054.37.37 0 0 1-.127-.595c.906-.983 1.121-1.672 1.121-3.726C19.518 9 18.011 7.5 15.75 7.5c-2.26 0-3.767 1.5-3.767 4.125 0 1.996.215 2.73 1.124 3.728a.37.37 0 0 1-.129.592A10.5 10.5 0 0 0 9.722 18c-.486.484-.659 1.72-.72 2.912a1.505 1.505 0 0 0 1.502 1.588h10.492a1.504 1.504 0 0 0 1.502-1.588c-.061-1.192-.233-2.428-.72-2.912zM10.5 20.989a5.448 5.448 0 0 1 .317-1.962 9.253 9.253 0 0 1 2.733-1.695 1.87 1.87 0 0 0 .666-2.99c-.545-.597-.733-.896-.733-2.717 0-1.197.393-2.625 2.266-2.625 1.874 0 2.269 1.428 2.269 2.625 0 1.842-.162 2.1-.724 2.71a1.87 1.87 0 0 0 .658 2.998 9.246 9.246 0 0 1 2.732 1.695c.224.632.33 1.3.312 1.972L10.5 20.989zM12.75 5.25H4.5v1.5h8.25v-1.5zM10.5 8.25h-6v1.5h6v-1.5zM8.25 11.25H4.5v1.5h3.75v-1.5z" fill="#333"/><path d="M3 3h12v3h1.5V3A1.5 1.5 0 0 0 15 1.5H3A1.5 1.5 0 0 0 1.5 3v13.5A1.5 1.5 0 0 0 3 18h4.5v-1.5H3V3z" fill="#333"/></svg>