<svg width="24" height="24" fill="none" xmlns="http://www.w3.org/2000/svg"><path fill-rule="evenodd" clip-rule="evenodd" d="M12 15.75A1.125 1.125 0 1 0 12 18a1.125 1.125 0 0 0 0-2.25z" fill="#000"/><path fill-rule="evenodd" clip-rule="evenodd" d="M12 21c-4.963 0-9-4.037-9-9s4.037-9 9-9 9 4.037 9 9-4.037 9-9 9zm0-19.5C6.201 1.5 1.5 6.201 1.5 12S6.201 22.5 12 22.5 22.5 17.799 22.5 12 17.799 1.5 12 1.5z" fill="#000"/><path fill-rule="evenodd" clip-rule="evenodd" d="M12 6a3.375 3.375 0 0 0-3.375 3.375v.375h1.5v-.375c0-1.034.84-1.875 1.875-1.875 1.034 0 1.875.84 1.875 1.875 0 1.034-.84 1.875-1.875 1.875a.75.75 0 0 0-.75.75v2.25h1.5v-1.59A3.372 3.372 0 0 0 12 6z" fill="#000"/></svg>