<svg width="24" height="24" fill="none" xmlns="http://www.w3.org/2000/svg"><path d="M22.211 21.244a13.93 13.93 0 0 0-.311-1.7 1.406 1.406 0 0 0-.442-.732 11.114 11.114 0 0 0-2.93-1.706 1.189 1.189 0 0 1-.717-.837 1.168 1.168 0 0 1 .294-1.06c.795-.844.995-1.332.995-3.396 0-2.265-1.187-3.563-3.256-3.563s-3.255 1.298-3.255 3.563c0 2.064.2 2.552.995 3.396a1.17 1.17 0 0 1 .293 1.06 1.19 1.19 0 0 1-.717.837 11.113 11.113 0 0 0-2.929 1.706c-.22.192-.374.448-.442.732a13.92 13.92 0 0 0-.312 1.7 1.133 1.133 0 0 0 1.136 1.256h10.463a1.132 1.132 0 0 0 1.135-1.256z" fill="#333"/><path d="M11.089 11.813c0-3.076 1.867-5.063 4.755-5.063.22.001.438.014.656.04V3A1.5 1.5 0 0 0 15 1.5H3A1.5 1.5 0 0 0 1.5 3v13.5A1.5 1.5 0 0 0 3 18h5.933c.099-.118.207-.228.324-.328a12.254 12.254 0 0 1 2.926-1.782c-.927-1.114-1.094-2.08-1.094-4.078zM4.5 5.25H12v1.5H4.5v-1.5zm3 7.5h-3v-1.5h3v1.5zm2.25-3H4.5v-1.5h5.25v1.5z" fill="#333"/></svg>