<svg width="24" height="24" fill="none" xmlns="http://www.w3.org/2000/svg"><path fill-rule="evenodd" clip-rule="evenodd" d="M4.5 5.25V4.5C4.5 3.673 5.173 3 6 3h12c.827 0 1.5.673 1.5 1.5v.75h-15zm0 6h15v-4.5h-15v4.5zm0 6.75h15v-5.25h-15V18zM18 1.5H6a3 3 0 0 0-3 3V18a1.5 1.5 0 0 0 1.5 1.5V21A1.5 1.5 0 0 0 6 22.5h.75a1.5 1.5 0 0 0 1.5-1.5v-1.5h7.5V21a1.5 1.5 0 0 0 1.5 1.5H18a1.5 1.5 0 0 0 1.5-1.5v-1.5A1.5 1.5 0 0 0 21 18V4.5a3 3 0 0 0-3-3z" fill="#000"/><path fill-rule="evenodd" clip-rule="evenodd" d="M7.125 16.5a1.125 1.125 0 1 0 0-2.25 1.125 1.125 0 0 0 0 2.25zm9.75 0a1.125 1.125 0 1 0 0-2.25 1.125 1.125 0 0 0 0 2.25z" fill="#000"/></svg>