<svg width="24" height="24" fill="none" xmlns="http://www.w3.org/2000/svg"><path fill-rule="evenodd" clip-rule="evenodd" d="M3.006 21.012c.015-1.164.06-4.705 1.055-5.701.652-.653 1.827-1.467 3.309-2.292a2.24 2.24 0 0 0 .537-3.496C7.168 8.735 6.75 8.183 6.75 6c0-1.384.785-3 2.999-3 2.215 0 3.001 1.616 3.001 3 0 2.183-.418 2.735-1.157 3.523a2.242 2.242 0 0 0 .538 3.496c1.481.825 2.656 1.64 3.309 2.292.995.996 1.04 4.537 1.063 5.69l-13.497.011zm9.854-9.303a.742.742 0 0 1-.173-1.16C13.73 9.436 14.25 8.498 14.25 6c0-2.25-1.5-4.5-4.501-4.5C6.75 1.5 5.25 3.75 5.25 6c0 2.5.52 3.437 1.562 4.548a.742.742 0 0 1-.172 1.161c-1.003.558-2.649 1.55-3.64 2.541-1.257 1.257-1.46 4.092-1.494 6.743-.01.831.661 1.507 1.491 1.507h13.506c.83 0 1.501-.676 1.49-1.507-.032-2.65-.236-5.486-1.493-6.743-.991-.99-2.637-1.983-3.64-2.54zM19.5 4.5v-3H18v3h-3V6h3v3h1.5V6h3V4.5h-3z" fill="#000"/></svg>