<svg width="24" height="24" fill="none" xmlns="http://www.w3.org/2000/svg"><path d="M10.5 6a4.513 4.513 0 0 1 4.22 2.955l.493 1.345 1.367-.43a2.223 2.223 0 0 1 1.68.1 2.2 2.2 0 0 1 1.14 2.636l-.267.947.762.623A2.999 2.999 0 0 1 18 19.5H6.75a3.747 3.747 0 0 1-1.588-7.142l.943-.443-.085-1.038c-.01-.124-.02-.25-.02-.377A4.505 4.505 0 0 1 10.5 6zm0-1.5a6 6 0 0 0-6 6c0 .169.012.335.025.5A5.247 5.247 0 0 0 6.75 21H18a4.5 4.5 0 0 0 2.844-7.986c.098-.33.151-.67.156-1.014a3.75 3.75 0 0 0-3.75-3.75c-.381.005-.76.07-1.12.19A5.996 5.996 0 0 0 10.5 4.5z" fill="#333"/></svg>