<svg width="24" height="24" fill="none" xmlns="http://www.w3.org/2000/svg"><path fill-rule="evenodd" clip-rule="evenodd" d="M9.75 17.25h4.5V15h-4.5v2.25zM5.625 15a1.125 1.125 0 1 1 0-2.25 1.125 1.125 0 0 1 0 2.25zm.127-11.25h12.496L19.203 9H4.797l.955-5.25zM19.5 13.875a1.125 1.125 0 1 1-2.25 0 1.125 1.125 0 0 1 2.25 0zm2.748-3.003l-.803-1.204a1.494 1.494 0 0 0-.696-.551l-1.025-5.635a1.5 1.5 0 0 0-1.476-1.232H5.752a1.5 1.5 0 0 0-1.476 1.232L3.25 9.117a1.494 1.494 0 0 0-.696.551l-.803 1.204a1.5 1.5 0 0 0-.252.832v5.546a1.5 1.5 0 0 0 1.5 1.5v1.5a1.5 1.5 0 0 0 1.5 1.5h.75a1.5 1.5 0 0 0 1.5-1.5v-1.5h10.5v1.5a1.5 1.5 0 0 0 1.5 1.5h.75a1.5 1.5 0 0 0 1.5-1.5v-1.5a1.5 1.5 0 0 0 1.5-1.5v-5.546a1.5 1.5 0 0 0-.252-.832z" fill="#000"/></svg>