<svg width="24" height="24" fill="none" xmlns="http://www.w3.org/2000/svg"><path fill-rule="evenodd" clip-rule="evenodd" d="M5.625 12.75a1.125 1.125 0 1 0 0 2.25 1.125 1.125 0 0 0 0-2.25zm12.75 0a1.125 1.125 0 1 0 0 2.25 1.125 1.125 0 0 0 0-2.25z" fill="#000"/><path fill-rule="evenodd" clip-rule="evenodd" d="M21 17.25h-6v-3H9v3H3v-5.546l.803-1.204h16.395L21 11.704v5.546zm-10.5 0h3v-1.5h-3v1.5zM5.752 3.75h12.496L19.203 9H4.797l.955-5.25zm16.496 7.122l-.803-1.204a1.49 1.49 0 0 0-.696-.551l-1.025-5.636a1.5 1.5 0 0 0-1.476-1.231H5.752a1.5 1.5 0 0 0-1.476 1.232L3.25 9.117a1.49 1.49 0 0 0-.696.551l-.803 1.204a1.501 1.501 0 0 0-.252.832v5.546a1.5 1.5 0 0 0 1.5 1.5v1.5a1.5 1.5 0 0 0 1.5 1.5h.75a1.5 1.5 0 0 0 1.5-1.5v-1.5h10.5v1.5a1.5 1.5 0 0 0 1.5 1.5h.75a1.5 1.5 0 0 0 1.5-1.5v-1.5a1.5 1.5 0 0 0 1.5-1.5v-5.546c0-.296-.088-.585-.252-.832z" fill="#000"/></svg>