<svg width="24" height="24" fill="none" xmlns="http://www.w3.org/2000/svg"><path fill-rule="evenodd" clip-rule="evenodd" d="M6.75 19.5a.75.75 0 1 1 1.5 0 .75.75 0 0 1-1.5 0zm6-16.5h-9c-.825 0-1.5.675-1.5 1.5v14.25c0 .825.675 1.5 1.5 1.5h1.638c.31.872 1.133 1.5 2.112 1.5.979 0 1.802-.628 2.112-1.5h4.638V4.5c0-.825-.675-1.5-1.5-1.5zM17.25 13.5V9h1.323l2.25 4.5H17.25zm1.5 6.75a.75.75 0 1 1 0-1.5.75.75 0 0 1 0 1.5zm0-14.25h-3v14.25h.888c.31.872 1.133 1.5 2.112 1.5.979 0 1.802-.628 2.112-1.5H21a1.5 1.5 0 0 0 1.5-1.5V13.5L18.75 6z" fill="#000"/></svg>