<svg width="24" height="24" fill="none" xmlns="http://www.w3.org/2000/svg"><path fill-rule="evenodd" clip-rule="evenodd" d="M19.5 20.25a.75.75 0 0 1-.75.75H5.25a.75.75 0 0 1-.75-.75V3.75A.76.76 0 0 1 5.25 3h13.5a.76.76 0 0 1 .75.75v16.5zM18.75 1.5H5.25A2.257 2.257 0 0 0 3 3.75v16.5a2.25 2.25 0 0 0 2.25 2.25h13.5A2.25 2.25 0 0 0 21 20.25V3.75a2.257 2.257 0 0 0-2.25-2.25z" fill="#000"/><path fill-rule="evenodd" clip-rule="evenodd" d="M7.5 17.25h9V6h-9v11.25zM6 18.75h12V4.5H6v14.25z" fill="#000"/></svg>