<svg width="24" height="24" fill="none" xmlns="http://www.w3.org/2000/svg"><path fill-rule="evenodd" clip-rule="evenodd" d="M12.679 12.138h-1.406V9.292h1.406c.775 0 1.36.608 1.36 1.406 0 .81-.595 1.44-1.36 1.44zm.112-4.421H9.585v8.854h1.688v-2.857h1.518c1.733 0 3.05-1.306 3.05-3.004 0-1.699-1.317-2.993-3.05-2.993z" fill="#000"/><path fill-rule="evenodd" clip-rule="evenodd" d="M12 21c-4.963 0-9-4.037-9-9s4.037-9 9-9 9 4.037 9 9-4.037 9-9 9zm0-19.5C6.201 1.5 1.5 6.201 1.5 12S6.201 22.5 12 22.5 22.5 17.799 22.5 12 17.799 1.5 12 1.5z" fill="#000"/></svg>