<svg width="24" height="24" fill="none" xmlns="http://www.w3.org/2000/svg"><path fill-rule="evenodd" clip-rule="evenodd" d="M7.5 8.153l.807 2.347H6.693L7.5 8.153zM14.902 9a5.397 5.397 0 0 0 1.223 1.568A5.397 5.397 0 0 0 17.348 9h-2.445zm4.973 0h-.914c-.248.778-.781 1.654-1.564 2.428.7.344 1.523.572 2.478.572v1.5a7.026 7.026 0 0 1-3.75-1.072 7.026 7.026 0 0 1-3.75 1.072V12c.955 0 1.778-.228 2.478-.572-.783-.774-1.316-1.65-1.564-2.428h-.914V7.5h3V6h1.5v1.5h3V9zM9.339 13.5L8.823 12H6.177l-.516 1.5H4.125l2.321-6.75h2.108l2.321 6.75H9.339zM21 1.5H3c-.825 0-1.5.675-1.5 1.5v14.25c0 .825.675 1.5 1.5 1.5h5.625L12 22.5l3.375-3.75H21c.825 0 1.5-.675 1.5-1.5V3c0-.825-.675-1.5-1.5-1.5z" fill="#000"/></svg>