<svg width="24" height="24" fill="none" xmlns="http://www.w3.org/2000/svg"><path fill-rule="evenodd" clip-rule="evenodd" d="M15 6h1.5V4.5H15V6zm3-1.5c0-.825-.675-1.5-1.5-1.5H15c-.825 0-1.5.675-1.5 1.5H2.25V6H13.5c0 .825.675 1.5 1.5 1.5h1.5c.825 0 1.5-.675 1.5-1.5h3.75V4.5H18zm-3 15h1.5V18H15v1.5zm1.5-3H15c-.825 0-1.5.675-1.5 1.5H2.25v1.5H13.5c0 .825.675 1.5 1.5 1.5h1.5c.825 0 1.5-.675 1.5-1.5h3.75V18H18c0-.825-.675-1.5-1.5-1.5zm-9.75-3.75h1.5v-1.5h-1.5v1.5zm1.5-3h-1.5c-.825 0-1.5.675-1.5 1.5h-3v1.5h3c0 .825.675 1.5 1.5 1.5h1.5c.825 0 1.5-.675 1.5-1.5h12v-1.5h-12c0-.825-.675-1.5-1.5-1.5z" fill="#000"/></svg>